<svg xmlns="http://www.w3.org/2000/svg" xmlns:xlink="http://www.w3.org/1999/xlink" width="261" height="73" viewBox="0 0 261 73">
  <defs>
    <path id="code-coral-header-logo-a" d="M168.89175,61.8586875 C169.851385,61.8586875 170.785956,61.7476849 171.695461,61.5256797 C172.604966,61.3036745 173.471503,60.9778281 174.29507,60.5481406 C175.118638,60.1184531 175.884914,59.5956667 176.593898,58.9797813 C177.302883,58.3638958 177.92951,57.6692344 178.473781,56.8957969 L178.473781,56.8957969 L174.176906,52.5774375 C173.94774,53.0930625 173.650539,53.562138 173.285305,53.9846641 C172.92007,54.4071901 172.504706,54.765263 172.039211,55.0588828 C171.573716,55.3525026 171.075995,55.5780885 170.546047,55.7356406 C170.016099,55.8931927 169.464667,55.9719688 168.89175,55.9719688 C168.089667,55.9719688 167.334133,55.8215781 166.625148,55.5207969 C165.916164,55.2200156 165.300279,54.804651 164.777492,54.2747031 C164.254706,53.7447552 163.842922,53.1288698 163.542141,52.4270469 C163.241359,51.725224 163.090969,50.9732708 163.090969,50.1711875 C163.090969,49.1829063 163.241359,48.2805625 163.542141,47.4641563 C163.842922,46.64775 164.254706,45.9423464 164.777492,45.3479453 C165.300279,44.7535443 165.916164,44.2916302 166.625148,43.9622031 C167.334133,43.632776 168.089667,43.4680625 168.89175,43.4680625 C169.464667,43.4680625 170.02326,43.554 170.567531,43.725875 C171.111802,43.89775 171.616685,44.148401 172.08218,44.4778281 C172.547674,44.8072552 172.96662,45.2118776 173.339016,45.6916953 C173.711411,46.171513 174.005031,46.7122031 174.219875,47.3137656 L174.219875,47.3137656 L178.51675,42.9954063 C178.001125,42.1217083 177.38882,41.3482708 176.679836,40.6750938 C175.970852,40.0019167 175.197414,39.4325807 174.359523,38.9670859 C173.521633,38.5015911 172.640773,38.147099 171.716945,37.9036094 C170.793117,37.6601198 169.851385,37.538375 168.89175,37.538375 C167.27326,37.538375 165.751451,37.8678021 164.32632,38.5266563 C162.90119,39.1855104 161.655096,40.0842734 160.588039,41.2229453 C159.520982,42.3616172 158.67951,43.6972292 158.063625,45.2297813 C157.44774,46.7623333 157.139797,48.4094688 157.139797,50.1711875 C157.139797,51.7896771 157.44774,53.3079063 158.063625,54.725875 C158.67951,56.1438438 159.520982,57.382776 160.588039,58.4426719 C161.655096,59.5025677 162.90119,60.3368776 164.32632,60.9456016 C165.751451,61.5543255 167.27326,61.8586875 168.89175,61.8586875 Z M191.514797,61.8586875 C193.147609,61.8586875 194.676581,61.5471641 196.101711,60.9241172 C197.526841,60.3010703 198.769354,59.4488568 199.82925,58.3674766 C200.889146,57.2860964 201.727036,56.0041953 202.342922,54.5217734 C202.958807,53.0393516 203.26675,51.4387656 203.26675,49.7200156 C203.26675,47.8866823 202.958807,46.2216432 202.342922,44.7248984 C201.727036,43.2281536 200.889146,41.9462526 199.82925,40.8791953 C198.769354,39.812138 197.526841,38.9885703 196.101711,38.4084922 C194.676581,37.8284141 193.147609,37.538375 191.514797,37.538375 C189.896307,37.538375 188.374497,37.8463177 186.949367,38.4622031 C185.524237,39.0780885 184.278143,39.9267214 183.211086,41.0081016 C182.144029,42.0894818 181.302557,43.3749635 180.686672,44.8645469 C180.070786,46.3541302 179.762844,47.9726198 179.762844,49.7200156 C179.762844,51.4387656 180.070786,53.0393516 180.686672,54.5217734 C181.302557,56.0041953 182.144029,57.2860964 183.211086,58.3674766 C184.278143,59.4488568 185.524237,60.3010703 186.949367,60.9241172 C188.374497,61.5471641 189.896307,61.8586875 191.514797,61.8586875 Z M191.514797,55.9719688 C190.712714,55.9719688 189.95718,55.8108359 189.248195,55.4885703 C188.539211,55.1663047 187.923326,54.725875 187.400539,54.1672813 C186.877753,53.6086875 186.465969,52.9498333 186.165188,52.1907188 C185.864406,51.4316042 185.714016,50.6080365 185.714016,49.7200156 C185.714016,48.7747031 185.864406,47.9189089 186.165188,47.1526328 C186.465969,46.3863568 186.877753,45.7275026 187.400539,45.1760703 C187.923326,44.624638 188.539211,44.202112 189.248195,43.9084922 C189.95718,43.6148724 190.712714,43.4680625 191.514797,43.4680625 C192.31688,43.4680625 193.072414,43.6148724 193.781398,43.9084922 C194.490383,44.202112 195.109849,44.624638 195.639797,45.1760703 C196.169745,45.7275026 196.58869,46.3863568 196.896633,47.1526328 C197.204576,47.9189089 197.358547,48.7747031 197.358547,49.7200156 C197.358547,50.6510052 197.204576,51.5032188 196.896633,52.2766563 C196.58869,53.0500938 196.169745,53.7089479 195.639797,54.2532188 C195.109849,54.7974896 194.490383,55.2200156 193.781398,55.5207969 C193.072414,55.8215781 192.31688,55.9719688 191.514797,55.9719688 Z M212.376125,61.429 L212.376125,48.7532188 C212.376125,48.1373333 212.490708,47.5572552 212.719875,47.0129844 C212.949042,46.4687135 213.264146,45.9960573 213.665188,45.5950156 C214.066229,45.193974 214.538885,44.8788698 215.083156,44.6497031 C215.627427,44.4205365 216.207505,44.3059531 216.823391,44.3059531 L216.823391,44.3059531 L222.001125,44.3059531 L222.001125,38.4622031 L216.823391,38.4622031 C215.534328,38.4622031 214.288234,38.6949505 213.085109,39.1604453 C211.881984,39.6259401 210.807766,40.288375 209.862453,41.14775 L209.862453,41.14775 L207.928859,38.4192344 L206.510891,38.4192344 L206.510891,61.429 L212.376125,61.429 Z M234.827297,61.8586875 C235.572089,61.8586875 236.306138,61.7655885 237.029445,61.5793906 C237.752753,61.3931927 238.458156,61.1389609 239.145656,60.8166953 C239.833156,60.4944297 240.48843,60.1148724 241.111477,59.6780234 C241.734523,59.2411745 242.325344,58.772099 242.883938,58.2707969 L242.883938,58.2707969 L245.161281,61.429 L246.57925,61.429 L246.57925,38.4622031 L245.161281,38.4622031 L242.883938,41.1907188 C242.339667,40.6750938 241.756008,40.195276 241.132961,39.7512656 C240.509914,39.3072552 239.854641,38.9205365 239.167141,38.5911094 C238.479641,38.2616823 237.770656,38.0038698 237.040188,37.8176719 C236.309719,37.631474 235.572089,37.538375 234.827297,37.538375 C233.208807,37.538375 231.686997,37.8355755 230.261867,38.4299766 C228.836737,39.0243776 227.590643,39.8586875 226.523586,40.9329063 C225.456529,42.007125 224.615057,43.2926068 223.999172,44.7893516 C223.383286,46.2860964 223.075344,47.929651 223.075344,49.7200156 C223.075344,51.6392865 223.383286,53.350875 223.999172,54.8547813 C224.615057,56.3586875 225.456529,57.6298464 226.523586,58.6682578 C227.590643,59.7066693 228.836737,60.4980104 230.261867,61.0422813 C231.686997,61.5865521 233.208807,61.8586875 234.827297,61.8586875 Z M234.827297,55.9719688 C234.025214,55.9719688 233.26968,55.835901 232.560695,55.5637656 C231.851711,55.2916302 231.235826,54.8905885 230.713039,54.3606406 C230.190253,53.8306927 229.778469,53.1754193 229.477688,52.3948203 C229.176906,51.6142214 229.026516,50.7226198 229.026516,49.7200156 C229.026516,48.7174115 229.176906,47.8258099 229.477688,47.0452109 C229.778469,46.264612 230.190253,45.6093385 230.713039,45.0793906 C231.235826,44.5494427 231.851711,44.148401 232.560695,43.8762656 C233.26968,43.6041302 234.025214,43.4680625 234.827297,43.4680625 C235.62938,43.4680625 236.384914,43.6435182 237.093898,43.9944297 C237.802883,44.3453411 238.422349,44.8108359 238.952297,45.3909141 C239.482245,45.9709922 239.90119,46.6370078 240.209133,47.3889609 C240.517076,48.1409141 240.671047,48.9179323 240.671047,49.7200156 C240.671047,50.522099 240.517076,51.2991172 240.209133,52.0510703 C239.90119,52.8030234 239.482245,53.4690391 238.952297,54.0491172 C238.422349,54.6291953 237.802883,55.0946901 237.093898,55.4456016 C236.384914,55.796513 235.62938,55.9719688 234.827297,55.9719688 Z M256.956203,61.429 L256.956203,29.2668906 L251.048,29.2668906 L251.048,61.429 L256.956203,61.429 Z"/>
    <path id="code-coral-header-logo-b" d="M12.71875,61.8586875 C13.6783854,61.8586875 14.6129557,61.7476849 15.5224609,61.5256797 C16.4319661,61.3036745 17.2985026,60.9778281 18.1220703,60.5481406 C18.945638,60.1184531 19.7119141,59.5956667 20.4208984,58.9797813 C21.1298828,58.3638958 21.7565104,57.6692344 22.3007812,56.8957969 L22.3007812,56.8957969 L18.0039062,52.5774375 C17.7747396,53.0930625 17.4775391,53.562138 17.1123047,53.9846641 C16.7470703,54.4071901 16.3317057,54.765263 15.8662109,55.0588828 C15.4007161,55.3525026 14.9029948,55.5780885 14.3730469,55.7356406 C13.843099,55.8931927 13.2916667,55.9719688 12.71875,55.9719688 C11.9166667,55.9719688 11.1611328,55.8215781 10.4521484,55.5207969 C9.74316406,55.2200156 9.12727865,54.804651 8.60449219,54.2747031 C8.08170573,53.7447552 7.66992188,53.1288698 7.36914062,52.4270469 C7.06835938,51.725224 6.91796875,50.9732708 6.91796875,50.1711875 C6.91796875,49.1829063 7.06835938,48.2805625 7.36914062,47.4641563 C7.66992188,46.64775 8.08170573,45.9423464 8.60449219,45.3479453 C9.12727865,44.7535443 9.74316406,44.2916302 10.4521484,43.9622031 C11.1611328,43.632776 11.9166667,43.4680625 12.71875,43.4680625 C13.2916667,43.4680625 13.8502604,43.554 14.3945313,43.725875 C14.9388021,43.89775 15.4436849,44.148401 15.9091797,44.4778281 C16.3746745,44.8072552 16.7936198,45.2118776 17.1660156,45.6916953 C17.5384115,46.171513 17.8320312,46.7122031 18.046875,47.3137656 L18.046875,47.3137656 L22.34375,42.9954063 C21.828125,42.1217083 21.2158203,41.3482708 20.5068359,40.6750938 C19.7978516,40.0019167 19.0244141,39.4325807 18.1865234,38.9670859 C17.3486328,38.5015911 16.4677734,38.147099 15.5439453,37.9036094 C14.6201172,37.6601198 13.6783854,37.538375 12.71875,37.538375 C11.1002604,37.538375 9.57845052,37.8678021 8.15332031,38.5266563 C6.7281901,39.1855104 5.48209635,40.0842734 4.41503906,41.2229453 C3.34798177,42.3616172 2.50651042,43.6972292 1.890625,45.2297813 C1.27473958,46.7623333 0.966796875,48.4094688 0.966796875,50.1711875 C0.966796875,51.7896771 1.27473958,53.3079063 1.890625,54.725875 C2.50651042,56.1438438 3.34798177,57.382776 4.41503906,58.4426719 C5.48209635,59.5025677 6.7281901,60.3368776 8.15332031,60.9456016 C9.57845052,61.5543255 11.1002604,61.8586875 12.71875,61.8586875 Z M35.3417969,61.8586875 C36.9746094,61.8586875 38.5035807,61.5471641 39.9287109,60.9241172 C41.3538411,60.3010703 42.5963542,59.4488568 43.65625,58.3674766 C44.7161458,57.2860964 45.5540365,56.0041953 46.1699219,54.5217734 C46.7858073,53.0393516 47.09375,51.4387656 47.09375,49.7200156 C47.09375,47.8866823 46.7858073,46.2216432 46.1699219,44.7248984 C45.5540365,43.2281536 44.7161458,41.9462526 43.65625,40.8791953 C42.5963542,39.812138 41.3538411,38.9885703 39.9287109,38.4084922 C38.5035807,37.8284141 36.9746094,37.538375 35.3417969,37.538375 C33.7233073,37.538375 32.2014974,37.8463177 30.7763672,38.4622031 C29.351237,39.0780885 28.1051432,39.9267214 27.0380859,41.0081016 C25.9710286,42.0894818 25.1295573,43.3749635 24.5136719,44.8645469 C23.8977865,46.3541302 23.5898438,47.9726198 23.5898438,49.7200156 C23.5898438,51.4387656 23.8977865,53.0393516 24.5136719,54.5217734 C25.1295573,56.0041953 25.9710286,57.2860964 27.0380859,58.3674766 C28.1051432,59.4488568 29.351237,60.3010703 30.7763672,60.9241172 C32.2014974,61.5471641 33.7233073,61.8586875 35.3417969,61.8586875 Z M35.3417969,55.9719688 C34.5397135,55.9719688 33.7841797,55.8108359 33.0751953,55.4885703 C32.3662109,55.1663047 31.7503255,54.725875 31.2275391,54.1672813 C30.7047526,53.6086875 30.2929688,52.9498333 29.9921875,52.1907188 C29.6914062,51.4316042 29.5410156,50.6080365 29.5410156,49.7200156 C29.5410156,48.7747031 29.6914062,47.9189089 29.9921875,47.1526328 C30.2929688,46.3863568 30.7047526,45.7275026 31.2275391,45.1760703 C31.7503255,44.624638 32.3662109,44.202112 33.0751953,43.9084922 C33.7841797,43.6148724 34.5397135,43.4680625 35.3417969,43.4680625 C36.1438802,43.4680625 36.8994141,43.6148724 37.6083984,43.9084922 C38.3173828,44.202112 38.936849,44.624638 39.4667969,45.1760703 C39.9967448,45.7275026 40.4156901,46.3863568 40.7236328,47.1526328 C41.0315755,47.9189089 41.1855469,48.7747031 41.1855469,49.7200156 C41.1855469,50.6510052 41.0315755,51.5032188 40.7236328,52.2766563 C40.4156901,53.0500938 39.9967448,53.7089479 39.4667969,54.2532188 C38.936849,54.7974896 38.3173828,55.2200156 37.6083984,55.5207969 C36.8994141,55.8215781 36.1438802,55.9719688 35.3417969,55.9719688 Z M60.8222656,61.8586875 C61.5670573,61.8586875 62.3011068,61.7655885 63.0244141,61.5793906 C63.7477214,61.3931927 64.453125,61.1389609 65.140625,60.8166953 C65.828125,60.4944297 66.4833984,60.1148724 67.1064453,59.6780234 C67.7294922,59.2411745 68.3203125,58.772099 68.8789062,58.2707969 L68.8789062,58.2707969 L71.15625,61.429 L72.5742188,61.429 L72.5742188,29.2668906 L66.6660156,29.2668906 L66.6660156,40.0090781 C66.3509115,39.5507448 65.9641927,39.164026 65.5058594,38.8489219 C65.047526,38.5338177 64.5569661,38.2795859 64.0341797,38.0862266 C63.5113932,37.8928672 62.9742839,37.7532188 62.4228516,37.6672813 C61.8714193,37.5813438 61.3378906,37.538375 60.8222656,37.538375 C59.203776,37.538375 57.6819661,37.8463177 56.2568359,38.4622031 C54.8317057,39.0780885 53.585612,39.9303021 52.5185547,41.0188438 C51.4514974,42.1073854 50.610026,43.3964479 49.9941406,44.8860313 C49.3782552,46.3756146 49.0703125,47.9869427 49.0703125,49.7200156 C49.0703125,51.4674115 49.3782552,53.0823203 49.9941406,54.5647422 C50.610026,56.0471641 51.4514974,57.3290651 52.5185547,58.4104453 C53.585612,59.4918255 54.8317057,60.3368776 56.2568359,60.9456016 C57.6819661,61.5543255 59.203776,61.8586875 60.8222656,61.8586875 Z M60.8222656,55.9719688 C60.0201823,55.9719688 59.2646484,55.8072552 58.5556641,55.4778281 C57.8466797,55.148401 57.2307943,54.6972292 56.7080078,54.1243125 C56.1852214,53.5513958 55.7734375,52.8853802 55.4726562,52.1262656 C55.171875,51.367151 55.0214844,50.5650677 55.0214844,49.7200156 C55.0214844,48.7460573 55.171875,47.8723594 55.4726562,47.0989219 C55.7734375,46.3254844 56.1852214,45.6702109 56.7080078,45.1331016 C57.2307943,44.5959922 57.8466797,44.1842083 58.5556641,43.89775 C59.2646484,43.6112917 60.0201823,43.4680625 60.8222656,43.4680625 C61.624349,43.4680625 62.3798828,43.6435182 63.0888672,43.9944297 C63.7978516,44.3453411 64.4173177,44.8108359 64.9472656,45.3909141 C65.4772135,45.9709922 65.8961589,46.6370078 66.2041016,47.3889609 C66.5120443,48.1409141 66.6660156,48.9179323 66.6660156,49.7200156 C66.6660156,50.522099 66.5120443,51.2991172 66.2041016,52.0510703 C65.8961589,52.8030234 65.4772135,53.4690391 64.9472656,54.0491172 C64.4173177,54.6291953 63.7978516,55.0946901 63.0888672,55.4456016 C62.3798828,55.796513 61.624349,55.9719688 60.8222656,55.9719688 Z M87.5703125,61.8586875 C88.5299479,61.8586875 89.4645182,61.7476849 90.3740234,61.5256797 C91.2835286,61.3036745 92.1500651,60.9778281 92.9736328,60.5481406 C93.7972005,60.1184531 94.5634766,59.5956667 95.2724609,58.9797813 C95.9814453,58.3638958 96.6080729,57.6692344 97.1523438,56.8957969 L97.1523438,56.8957969 L92.8554688,52.5774375 C92.6263021,53.0930625 92.3291016,53.562138 91.9638672,53.9846641 C91.5986328,54.4071901 91.1832682,54.765263 90.7177734,55.0588828 C90.2522786,55.3525026 89.7545573,55.5780885 89.2246094,55.7356406 C88.6946615,55.8931927 88.1432292,55.9719688 87.5703125,55.9719688 C87.3411458,55.9719688 87.1119792,55.9612266 86.8828125,55.9397422 C86.6536458,55.9182578 86.4244792,55.8717083 86.1953125,55.8000938 L86.1953125,55.8000938 L97.1953125,42.5442344 C96.6510417,41.7707969 96.0208333,41.0725547 95.3046875,40.4495078 C94.5885417,39.8264609 93.8186849,39.3000938 92.9951172,38.8704063 C92.1715495,38.4407188 91.3014323,38.1112917 90.3847656,37.882125 C89.468099,37.6529583 88.5299479,37.538375 87.5703125,37.538375 C85.9518229,37.538375 84.430013,37.8319948 83.0048828,38.4192344 C81.5797526,39.006474 80.3336589,39.8300417 79.2666016,40.8899375 C78.1995443,41.9498333 77.3580729,43.2317344 76.7421875,44.7356406 C76.1263021,46.2395469 75.8183594,47.9010052 75.8183594,49.7200156 C75.8183594,51.4960573 76.1263021,53.1252891 76.7421875,54.6077109 C77.3580729,56.0901328 78.1995443,57.3684531 79.2666016,58.4426719 C80.3336589,59.5168906 81.5797526,60.3547813 83.0048828,60.9563438 C84.430013,61.5579063 85.9518229,61.8586875 87.5703125,61.8586875 Z M82.3710938,52.7707969 C82.2565104,52.570276 82.1634115,52.3411094 82.0917969,52.0832969 C82.0201823,51.8254844 81.9593099,51.5569297 81.9091797,51.2776328 C81.8590495,50.9983359 81.8232422,50.7226198 81.8017578,50.4504844 C81.7802734,50.178349 81.7695312,49.9348594 81.7695312,49.7200156 C81.7695312,48.7603802 81.9199219,47.8974245 82.2207031,47.1311484 C82.5214844,46.3648724 82.9332682,45.709599 83.4560547,45.1653281 C83.9788411,44.6210573 84.5947266,44.202112 85.3037109,43.9084922 C86.0126953,43.6148724 86.7682292,43.4680625 87.5703125,43.4680625 C87.8567708,43.4680625 88.132487,43.4823854 88.3974609,43.5110313 C88.6624349,43.5396771 88.9309896,43.6041302 89.203125,43.7043906 L89.203125,43.7043906 L82.3710938,52.7707969 Z"/>
    <linearGradient id="code-coral-header-logo-c" x1="50%" x2="50%" y1="0%" y2="100%">
      <stop offset="0%" stop-color="#FF785D"/>
      <stop offset="100%" stop-color="#F23E43"/>
      <stop offset="100%" stop-color="#FF785D"/>
    </linearGradient>
  </defs>
  <g fill="none">
    <use fill="#000" xlink:href="#code-coral-header-logo-a"/>
    <use fill="#FFF" xlink:href="#code-coral-header-logo-a"/>
    <use fill="#000" xlink:href="#code-coral-header-logo-b"/>
    <use fill="#FFF" xlink:href="#code-coral-header-logo-b"/>
    <path fill="url(#code-coral-header-logo-c)" d="M111.864834,16.8427413 C112.474853,16.7722008 112.962585,17.0761401 113.328033,17.7545592 C113.642847,18.0807632 113.906823,17.878005 114.119962,17.1462846 C114.333101,16.4145643 114.782896,16.1325166 115.469347,16.3001416 C116.23937,16.5405305 116.398366,17.1226112 115.946334,18.0463838 C115.268287,19.4320427 111.07207,24.6979529 109.247166,25.6105931 C109.100836,25.6783924 109.006044,25.9068266 108.96279,26.2958957 C108.897908,26.8794993 108.639105,29.5932059 109.247166,31.5636791 C109.652539,32.8773279 110.268341,32.8347173 111.09457,31.4358473 C111.433978,30.7023753 110.820528,29.6487611 111.451405,28.7364864 C112.082283,27.8242116 111.459822,27.8242116 112.883329,26.6112262 C113.832333,25.8025692 114.344547,26.1420529 114.419971,27.6296771 C114.531962,28.6974089 114.431959,29.5679258 114.119962,30.241228 C113.807965,30.9145301 112.912637,32.3286594 111.433978,34.4836161 C110.98288,35.4381054 110.98288,36.3520248 111.433978,37.2253744 C112.110625,38.5353987 113.143939,40.6305969 113.537565,40.8437717 C113.931191,41.0569465 114.939294,41.04388 115.009326,40.3221194 C115.079358,39.6003588 114.933601,38.042986 114.676786,37.7035328 C114.419971,37.3640796 114.287136,36.5201524 114.419971,36.2222742 C114.552806,35.9243961 115.640203,35.6030349 115.946334,36.0873153 C116.252466,36.5715958 117.014055,36.9126023 116.865225,38.1117903 C116.716395,39.3109784 116.66543,41.9956282 116.151258,42.9310204 C115.808476,43.5546153 115.932637,44.4941498 116.523739,45.749624 C117.838959,48.2935888 118.711093,49.6558484 119.140142,49.8364027 C119.569191,50.0169571 120.102731,49.9266799 120.740762,49.5655712 C121.476989,48.2695271 121.759678,47.0516683 121.58883,45.911995 C121.417981,44.7723217 121.0717,44.5999449 120.840963,43.8463863 L120.17698,42.6037199 C119.708533,41.8338663 119.296834,41.4052933 118.941883,41.318001 C118.409458,41.1870626 117.86899,39.6908187 118.632205,39.6299639 C119.395421,39.569109 120.384637,39.3262378 120.907936,40.3221194 C121.256802,40.9860405 121.588077,41.126695 121.901761,40.744083 C122.220264,39.7211852 122.220264,38.931138 121.901761,38.3739414 C121.583257,37.8167448 120.222524,36.3215365 117.819561,33.8883166 C116.875556,33.3207643 116.392982,32.7914366 116.371837,32.3003336 C116.340119,31.5636791 115.611964,30.3580949 117.008904,29.7276166 C117.940197,29.3072977 118.77242,30.1285338 119.505575,32.1913248 C120.091496,33.5850778 120.687448,34.2163481 121.29343,34.0851355 C121.899411,33.9539229 122.202402,33.6960969 122.202402,33.3116574 C122.247283,32.3916463 122.042759,31.698242 121.58883,31.2314444 C121.134901,30.7646468 120.38771,29.5640577 119.347257,27.6296771 C118.593921,26.6076931 118.247917,25.3126236 118.309244,23.7444687 C118.401235,21.3922363 118.938359,20.2261255 119.347257,20.1126394 C119.756155,19.9991533 120.508527,19.4607797 121.29343,20.5385321 C121.816698,21.2570337 121.747148,22.1431756 121.084779,23.1969577 C120.512954,24.4627876 120.454007,25.3256291 120.907936,25.7854823 C121.361865,26.2453356 121.873146,27.2290036 122.441777,28.7364864 C122.643229,29.1362157 122.551131,29.1579017 122.860253,29.0362834 C123.169376,28.914665 123.256513,28.7413292 123.401806,28.1855031 C123.547098,27.6296771 123.417858,26.806553 123.055982,26.0805279 C122.694106,25.3545029 123.05848,24.4040952 123.268699,24.1578432 C123.478919,23.9115911 123.878657,23.4814953 124.912785,24.1109685 C125.602203,24.5306173 126.139073,25.2827288 125.946912,26.6112262 L125.390359,29.0362834 C124.980106,32.339076 124.611511,34.3399462 124.284573,35.0388938 C123.794167,36.0873153 123.702086,38.2632879 124.457169,38.6991403 C125.212252,39.1349927 125.222101,38.3739414 125.390359,38.3739414 C125.558617,38.3739414 126.860223,37.7683167 126.799859,38.6991403 C126.739496,39.6299639 126.272223,41.2046977 125.542352,42.3503407 C125.055771,43.1141028 124.845915,43.926567 124.912785,44.7877334 C124.530424,47.5955853 123.626963,49.8581497 122.202402,51.5754264 C121.874501,51.9507285 121.790312,52.3566104 121.949835,52.7930719 C122.189119,53.4477643 122.898478,54.2936103 123.268699,54.197668 C123.949202,54.1560625 124.332255,53.7551148 124.41786,52.994825 C124.546268,51.8543902 124.974955,51.8415979 125.115833,51.8543902 C125.256711,51.8671825 126.745189,51.523983 126.346051,53.6157091 C125.946912,55.7074351 125.695971,55.1001657 125.695429,56.4929746 C125.694886,57.8857834 125.316893,59.2092396 125.694886,59.5637695 C126.07288,59.9182993 125.882754,61.3950806 127.101585,61.011768 C127.91414,60.7562263 128.452951,60.0005356 128.718019,58.7446959 C129.005558,55.0106804 128.973991,52.9582146 128.623317,52.5872984 C128.097308,52.0309242 128.711242,48.8841977 129.626179,47.3980964 C130.236137,46.4073621 130.236137,43.8179846 129.626179,39.6299639 C128.148363,37.6404545 127.418372,36.2853525 127.436204,35.5646579 C127.462951,34.4836161 126.912182,33.3396177 127.959593,32.4516484 C128.657867,31.8596688 129.213395,32.1463385 129.626179,33.3116574 C129.904018,34.4652195 130.092187,35.2162197 130.190684,35.5646579 C130.338429,36.0873153 130.869047,37.6020166 131.265023,37.4889874 C131.660999,37.3759582 132.00619,36.5863983 132.00619,35.9493411 C132.00619,35.3122839 132.052998,32.3468428 132.722506,31.2314444 C133.168845,30.4878455 133.030437,29.1395052 132.307283,27.1864234 C130.71097,24.9439308 129.91679,23.6141089 129.924742,23.1969577 C129.93667,22.5712308 129.444366,20.4393917 129.033842,20.3808212 C128.623317,20.3222506 126.476356,19.4570334 126.346051,19.2133398 C126.215745,18.9696462 124.841307,18.2852574 125.115833,16.9415162 C125.390359,15.5977751 125.946912,16.3001416 126.577744,16.5451373 C127.411564,16.8000089 127.920254,16.8573002 128.103814,16.7170111 C128.379153,16.5065776 128.354213,14.9068074 127.959593,14.3614893 C127.564973,13.8161713 126.104236,10.5176732 127.959593,9.2481274 C129.196497,8.40176356 129.995889,8.55505812 130.357767,9.70801108 C130.637595,10.7871341 130.679704,11.6531433 130.484096,12.3060386 C130.190684,13.2853816 129.491717,13.7533975 129.924742,14.7586907 C130.357767,15.7639838 130.958146,16.5380101 131.265023,17.1462846 C131.5719,17.7545592 132.121404,18.8708713 132.00619,20.2168968 C131.890975,21.5629223 132.534007,22.9083996 132.628256,22.9967579 C132.722506,23.0851163 133.315295,24.8504556 133.94685,24.6660635 C134.578405,24.4816714 135.521174,23.7942673 135.499577,22.9967579 C135.485179,22.465085 135.445419,20.8149603 135.380297,18.0463838 C134.448823,15.3801763 133.810009,13.9428152 133.463854,13.7343004 C132.944621,13.4215284 132.574309,11.0271727 132.944621,10.4541685 C133.314934,9.88116418 133.466384,9.58493074 134.177369,9.88116418 C134.888354,10.1773976 135.499577,11.6234773 135.499577,12.1103162 C135.499577,12.5971551 135.984019,13.4924343 136.303547,13.1709818 C136.623075,12.8495292 137.468612,11.3897435 137.143934,10.6354538 C136.819255,9.88116418 136.152729,8.54281404 136.41605,7.37277421 C136.591598,6.59274765 137.067696,5.81564505 137.844346,5.04146641 C138.363458,2.88005271 138.452437,1.64233544 138.111282,1.3283146 C137.59955,0.857283334 137.992272,-0.15531967 138.963235,0.0202091486 C139.934198,0.195737968 141.055617,0.541952801 140.849406,1.8193567 C140.711932,2.6709593 140.643195,3.63415961 140.643195,4.70895762 C140.441442,5.95133495 140.11101,6.83927381 139.6519,7.37277421 C138.963235,8.1730248 139.261708,9.53485797 139.456804,9.70801108 C139.6519,9.88116418 140.55997,10.6354538 140.849406,10.6354538 C141.138842,10.6354538 141.639008,11.0537625 141.244207,11.4009824 C140.981006,11.6324624 140.391983,12.1103162 139.891456,13.1709818 C139.763861,13.4518032 139.456804,13.6339112 139.456804,14.002208 C139.456804,14.5546533 140.454605,14.9251735 140.849406,14.7586907 C141.244207,14.5922078 143.346258,14.8738215 143.581747,14.3614893 C143.817236,13.8491572 148.17577,10.6659726 148.769552,8.82552418 C149.363335,6.98507573 148.710635,3.62974321 148.936274,3.62974321 C149.161914,3.62974321 148.848169,2.85891494 150.137033,3.08250631 C150.996276,3.23156722 151.304719,3.56224853 151.062362,4.07455024 C150.975673,5.05602528 151.140888,5.48688259 151.558009,5.36712216 C152.183691,5.18748153 152.651958,3.88814795 152.988655,3.75894558 C153.325351,3.62974321 154.209113,3.08232356 154.495748,3.75894558 C154.782383,4.4355676 155.159834,4.94927037 154.643945,5.63475564 C154.128056,6.32024091 152.850036,8.76421245 151.668163,9.53604583 C150.486291,10.3078792 146.80847,13.6429268 146.820398,14.002208 C146.832326,14.3614893 145.983445,15.7575419 147.930973,16.3001416 C149.229325,16.6618747 150.160769,16.1480578 150.725304,14.7586907 C151.31249,14.338189 151.731418,14.2624098 151.982088,14.531353 C152.358094,14.9347677 152.734099,15.658904 152.358094,16.4025943 C151.982088,17.1462846 151.122906,17.1619324 151.253753,17.6041581 C151.384601,18.0463838 151.606083,18.2702721 151.982088,18.2205649 C152.232758,18.1874267 152.500779,18.0683973 152.786149,17.8634766 C153.728647,17.6741503 154.137755,17.8980158 154.013474,18.535073 C153.827053,19.4906589 153.795968,19.6830918 152.988655,19.9499943 C152.181341,20.2168968 150.938563,20.2168968 150.234717,20.2168968 C149.53087,20.2168968 146.100557,19.009942 145.481382,17.8634766 C145.068598,17.0991663 143.904768,16.8601023 141.989892,17.1462846 C139.92971,17.2976604 138.861214,17.9008789 138.784404,18.9559402 C138.66919,20.5385321 138.765518,21.5317639 138.111282,23.4991304 C137.457045,25.4664969 136.963657,26.0531158 137.30668,26.8413965 C137.649702,27.6296771 138.346771,28.0037609 138.784404,27.3074935 C139.222038,26.6112262 140.15568,24.7638333 140.023568,24.254151 C139.891456,23.7444687 140.312191,22.7965582 141.151041,22.9967579 C141.989892,23.1969577 142.296497,23.8754985 142.238122,24.4472236 C142.179747,25.0189486 141.75377,25.7103732 142.296497,25.6105931 C142.839225,25.5108131 143.31707,24.3240519 143.335685,23.9115911 C143.3543,23.4991304 144.417254,22.8947849 144.738227,23.1969577 C145.059201,23.4991304 146.060345,23.7092898 145.877809,24.4472236 C145.695274,25.1851573 144.8257,26.1829578 144.400807,26.5121771 C143.975915,26.8413965 138.329421,30.0257688 137.143934,32.0554522 C135.958446,34.0851355 135.329422,33.8006892 134.824196,36.0873153 C134.31897,38.3739414 134.722807,39.8096045 134.824196,39.9063692 C134.925584,40.0031339 135.615695,40.7464587 135.959621,40.5924941 C136.303547,40.4385295 137.469425,39.2588954 137.30668,38.3739414 C137.143934,37.4889874 137.307402,35.7949196 137.844346,35.7814877 C138.38129,35.7680557 139.6519,35.3407011 139.6519,35.7814877 C139.6519,36.2222742 140.070919,36.6393037 139.763861,37.2253744 C139.456804,37.8114451 139.412345,38.1117903 139.6519,38.1117903 C139.891456,38.1117903 140.643195,38.0487425 140.849406,38.3739414 C141.055617,38.6991403 141.528041,38.8186571 141.244207,39.4853193 C140.960373,40.1519816 140.89251,40.5027652 140.391983,40.744083 C139.891456,40.9854009 134.585815,43.3122314 134.561326,43.6944474 C134.536838,44.0766635 133.643046,44.5886302 133.700969,45.911995 C133.758893,47.2353599 133.506867,47.7002691 133.225744,48.3841096 C132.944621,49.0679502 132.307283,49.8720385 132.307283,50.7237324 C132.307283,51.5754264 132.317404,52.70115 132.722506,53.0974376 C133.127609,53.4937252 133.226738,53.2000503 133.463854,53.0974376 C133.700969,52.994825 134.396231,51.0638252 134.386743,50.3971629 C134.377255,49.7305007 135.011701,48.5002456 135.380297,48.4941235 C135.748892,48.4880015 136.095258,48.0028987 136.41605,48.1935042 C136.736843,48.3841096 137.469425,48.9984148 137.30668,50.0330389 C137.143934,51.0676629 136.56244,53.3491721 135.693318,54.4130357 C134.824196,55.4768994 131.44346,61.236974 131.265023,61.8882242 C131.086586,62.5394745 130.74073,63.8014061 131.524007,64.6966853 C132.307283,65.5919646 133.115952,65.5264496 133.463854,65.5919646 C133.811756,65.6574795 137.429484,63.6465278 137.844346,61.8882242 C138.259208,60.1299207 137.055919,59.7987825 137.034051,59.1799087 C137.012183,58.5610348 137.31671,57.3471356 137.012183,56.9200551 C136.707656,56.4929746 136.191044,56.3902706 136.303547,55.7545839 C136.41605,55.1188973 136.939801,54.4591794 137.30668,54.8915596 C137.673558,55.3239398 138.332132,55.2875731 138.438039,56.0178315 C138.543945,56.7480898 138.521626,57.0223022 139.456804,57.3174392 C140.391983,57.6125761 141.151041,56.4858474 141.151041,56.2518394 C141.151041,56.0178315 141.306829,51.7708747 140.849406,51.2473036 C140.391983,50.7237324 139.501534,46.9164658 140.17547,45.911995 C140.849406,44.9075243 140.757054,44.5375523 141.244207,44.7877334 C141.73136,45.0379145 141.989892,45.0394678 141.989892,45.3865964 C141.989892,45.733725 142.296769,47.1107262 141.989892,47.6521152 C141.683015,48.1935042 142.542107,49.6033085 142.999259,49.4430391 C143.456412,49.2827697 144.346589,47.4530119 144.267159,46.8659361 C144.187729,46.2788603 144.952571,41.5344653 144.267159,40.3221194 C143.581747,39.1097736 144.580813,34.8820966 144.738227,34.4836161 C144.895641,34.0851355 144.895641,32.86749 145.665454,32.9796968 C146.435266,33.0919037 147.5134,32.702195 147.390144,33.7030108 C147.266887,34.7038266 147.311979,35.6414118 146.820398,36.3241559 C146.328817,37.0068999 146.207006,37.8102572 146.70428,37.8041352 C147.201554,37.7980132 148.021518,37.019144 148.027482,36.6716499 C148.033446,36.3241559 148.445236,35.8504748 148.936274,36.0873153 C149.427313,36.3241559 150.570149,37.1491687 150.234717,37.7035328 C149.899285,38.2578968 149.676899,39.0686554 148.533521,39.9063692 C147.77127,40.4648451 147.390144,41.5169215 147.390144,43.0625985 C147.321648,44.7449705 147.093026,45.7306487 146.70428,46.0196332 C146.12116,46.4531099 146.47096,48.2013623 147.07405,48.0420066 C147.67714,47.8826509 148.519605,46.5921806 148.644579,46.2520878 C148.769552,45.911995 149.649912,42.9964566 149.455778,42.203686 C149.261643,41.4109154 150.402342,40.561427 150.828048,40.8437717 C151.253753,41.1261163 151.911152,41.4036182 151.668163,42.3503407 C151.425174,43.2970633 151.901484,45.7197448 151.253753,46.68593 C150.606023,47.6521152 145.198632,55.3488848 144.267159,56.0178315 C143.335685,56.6867781 143.79609,58.3968363 144.267159,58.3651297 C144.738227,58.333423 145.877809,57.7645305 146.419181,57.424255 C146.960553,57.0839795 148.386499,57.1788253 148.386499,57.7645305 C148.386499,58.1550007 148.309238,58.754747 148.154715,59.5637695 C147.711466,60.58554 146.496713,61.011768 146.03441,61.011768 C145.572107,61.011768 144.863894,61.5834017 143.909769,62.726669 C140.088751,66.4088452 137.199749,68.5391614 135.242762,69.1176176 C133.285776,69.6960738 132.856955,72 132.526055,72 C132.305454,72 130.322684,72 126.577744,72 C126.400953,71.83605 125.253087,67.5322237 124.56862,66.1044639 C123.178059,63.2038307 121.62577,61.8087949 121.0717,61.5626725 C119.831505,61.011768 119.656651,62.1365166 117.088502,62.1365166 C114.520353,62.1365166 115.168391,62.7681957 113.550511,62.6639079 C111.123692,62.5074762 109.333036,61.2724697 108.7088,60.3185286 C108.292643,59.6825678 108.292643,59.1105687 108.7088,58.6025311 C109.000134,58.3655687 109.438641,58.271332 110.024321,58.3198209 C110.610001,58.3683099 111.124173,58.7229616 111.566837,59.3837759 C112.009501,60.0445903 113.202549,59.8426545 113.550511,59.1511386 C113.898473,58.4596227 113.724492,57.8610642 113.028568,57.3554632 C110.747897,56.4680422 109.608104,55.2583766 109.609188,53.7264666 C109.610273,52.1945566 111.129557,50.8510412 111.918173,52.5243546 C112.706789,54.197668 117.819561,57.8616909 118.655363,58.8174419 C119.212564,59.4546093 119.746074,59.4416343 120.255892,58.7785168 C120.81109,58.1169714 120.742232,57.2880295 120.04932,56.291691 C119.356408,55.2953525 118.182156,53.7836665 116.526564,51.756633 C114.819886,49.7638342 112.652472,48.5978453 110.024321,48.2586662 C107.39617,47.9194871 105.848775,46.5589941 105.382134,44.1771871 C105.345989,43.3974652 105.707204,43.0038883 106.465781,42.9964566 C107.224358,42.9890249 108.532282,43.488567 109.609188,45.214461 C109.939801,45.7592918 110.59235,45.9766393 111.566837,45.8665035 C112.541324,45.7563678 112.339504,43.780049 111.362795,42.9964566 C109.528885,41.2379398 108.54012,39.7561635 108.396502,38.5511276 C108.181073,36.7435736 107.852509,34.8678549 106.465781,34.2165434 C105.541296,33.7823357 104.985986,33.7030108 104.656149,33.5652319 C102.946339,32.8441109 101.944622,31.473384 101.650999,29.4530513 C101.357375,27.4327185 102.403227,27.323479 103.139658,27.9883314 C103.876088,28.6531837 103.958778,29.9225901 104.656149,30.0670823 C105.353519,30.2115746 105.95673,29.8946298 106.465781,29.1162479 C106.910011,28.3264139 106.641389,27.1052962 105.659914,25.4528948 C104.678439,23.8004934 103.139658,21.4136304 101.928959,21.0463082 C100.615666,20.6693614 99.4392457,20.7918021 98.3996965,21.4136304 C97.3601474,22.0354586 96.6756471,20.5385321 97.6619636,19.3173356 C98.3996965,18.5755642 99.1455992,18.6984443 99.5990095,18.5755642 C100.05242,18.4526841 100.110569,17.6041581 99.5990095,17.1815675 C99.0160786,16.5451373 98.1734247,16.141796 97.9688403,15.4924338 C97.6619636,14.5183905 97.958358,13.5931407 98.7786838,13.6945655 C99.5990095,13.7959903 100.317766,13.9610111 101.928959,16.7636243 C103.540151,19.5662375 102.846516,20.1146623 104.656149,20.7641463 C105.86257,21.1971357 106.746912,18.2205649 105.932271,16.7636243 C104.390893,14.4281308 102.637173,13.0528178 101.928959,12.891391 C100.866638,12.6492507 100.823624,10.7018951 100.866638,10.3797115 C100.909651,10.057528 100.953749,9.16572096 101.650999,9.60669029 C102.348248,10.0476596 102.368851,11.2890623 103.5125,11.3665472 C104.274933,11.4182037 104.656149,10.3660055 104.656149,8.20995238 C104.642654,7.02075453 104.33644,5.60708203 103.737507,3.96893488 C103.138573,2.33078774 103.686782,1.86051792 105.382134,2.55812543 C106.229939,2.9097945 106.647654,4.16392629 106.672354,5.15368588 C106.709403,6.63832526 106.675065,9.21816944 106.465781,11.9246575 C106.326259,13.7289829 106.786574,14.0512274 107.846726,12.891391 C109.561356,11.4916682 110.576025,10.3967679 110.890733,9.60669029 C111.205441,8.81661263 111.048087,8.03347936 110.41867,7.2572905 C110.155771,6.98000187 110.024321,6.59866909 110.024321,6.11329216 C110.024321,5.38522676 111.334042,6.21033708 111.451405,5.5417331 C111.521967,5.13579564 111.563662,4.89745504 111.576108,4.82708821 C111.82205,3.43656085 111.557927,2.78203144 111.271581,2.44039787 C110.809458,1.88904915 112.10275,1.30224745 112.611681,1.55937295 C113.120612,1.81649846 114.10522,2.3139468 114.066363,3.43071075 C114.027506,4.54747469 114.372698,6.39194358 113.492189,7.90399507 C112.905184,8.91202939 112.26649,10.0273973 111.576108,11.2500988 C110.885726,12.4728004 114.129618,11.5396925 114.512039,11.2500988 C114.89446,10.9605052 115.085671,10.0848409 115.085671,8.62310584 C115.278568,7.9898254 115.591409,7.67318518 116.024193,7.67318518 C116.456977,7.67318518 116.811746,7.8535568 117.088502,8.21430005 C117.365257,8.57504329 116.981932,9.71678775 117.290014,9.85226445 C117.752136,10.0554795 118.471977,9.161845 118.895604,9.6490494 C119.319231,10.1362538 119.692073,10.7998094 118.895604,11.5810543 C118.099134,12.3622991 116.525533,12.9160236 115.712617,12.9394152 C114.899701,12.9628069 109.275301,14.4554615 108.4674,15.8008731 C107.6595,17.1462846 108.334746,19.8540872 107.939674,21.2028844 C107.544602,22.5516816 107.742138,23.3060626 108.532282,23.4660275 C109.404115,23.3650291 110.224983,22.5460164 110.994886,21.0089895 C112.149739,18.7034491 111.032839,18.7034491 111.032839,17.9860515 C110.998061,17.3144959 111.254816,16.9132818 111.864834,16.8427413 Z"/>
  </g>
</svg>
