<svg xmlns="http://www.w3.org/2000/svg" width="513" height="143" viewBox="0 0 513 143">
  <defs>
    <linearGradient id="logo-home-a" x1="50%" x2="50%" y1="0%" y2="100%">
      <stop offset="0%" stop-color="#FF785D"/>
      <stop offset="100%" stop-color="#F23E43"/>
      <stop offset="100%" stop-color="#FF785D"/>
    </linearGradient>
  </defs>
  <g fill="none">
    <g transform="translate(313 57)">
      <path fill="#000" d="M23.7835,65.460375 C25.7027708,65.460375 27.5719115,65.2383698 29.3909219,64.7943594 C31.2099323,64.350349 32.9430052,63.6986562 34.5901406,62.8392812 C36.237276,61.9799062 37.7698281,60.9343333 39.1877969,59.7025625 C40.6057656,58.4707917 41.8590208,57.0814687 42.9475625,55.5345937 L42.9475625,55.5345937 L34.3538125,46.897875 C33.8954792,47.929125 33.3010781,48.867276 32.5706094,49.7123281 C31.8401406,50.5573802 31.0094115,51.273526 30.0784219,51.8607656 C29.1474323,52.4480052 28.1519896,52.8991771 27.0920938,53.2142812 C26.0321979,53.5293854 24.9293333,53.6869375 23.7835,53.6869375 C22.1793333,53.6869375 20.6682656,53.3861562 19.2502969,52.7845937 C17.8323281,52.1830312 16.6005573,51.3523021 15.5549844,50.2924062 C14.5094115,49.2325104 13.6858438,48.0007396 13.0842813,46.5970937 C12.4827188,45.1934479 12.1819375,43.6895417 12.1819375,42.085375 C12.1819375,40.1088125 12.4827188,38.304125 13.0842813,36.6713125 C13.6858438,35.0385 14.5094115,33.6276927 15.5549844,32.4388906 C16.6005573,31.2500885 17.8323281,30.3262604 19.2502969,29.6674062 C20.6682656,29.0085521 22.1793333,28.679125 23.7835,28.679125 C24.9293333,28.679125 26.0465208,28.851 27.1350625,29.19475 C28.2236042,29.5385 29.2333698,30.0398021 30.1643594,30.6986562 C31.095349,31.3575104 31.9332396,32.1667552 32.6780313,33.1263906 C33.4228229,34.086026 34.0100625,35.1674062 34.43975,36.3705312 L34.43975,36.3705312 L43.0335,27.7338125 C42.00225,25.9864167 40.7776406,24.4395417 39.3596719,23.0931875 C37.9417031,21.7468333 36.3948281,20.6081615 34.7190469,19.6771719 C33.0432656,18.7461823 31.2815469,18.0371979 29.4338906,17.5502187 C27.5862344,17.0632396 25.7027708,16.81975 23.7835,16.81975 C20.5465208,16.81975 17.502901,17.4786042 14.6526406,18.7963125 C11.8023802,20.1140208 9.3101927,21.9115469 7.17607813,24.1888906 C5.04196354,26.4662344 3.35902083,29.1374583 2.12725,32.2025625 C0.89547917,35.2676667 0.27959375,38.5619375 0.27959375,42.085375 C0.27959375,45.3223542 0.89547917,48.3588125 2.12725,51.19475 C3.35902083,54.0306875 5.04196354,56.5085521 7.17607813,58.6283437 C9.3101927,60.7481354 11.8023802,62.4167552 14.6526406,63.6342031 C17.502901,64.851651 20.5465208,65.460375 23.7835,65.460375 Z M69.0295938,65.460375 C72.2952188,65.460375 75.3531615,64.8373281 78.2034219,63.5912344 C81.0536823,62.3451406 83.5387083,60.6407135 85.6585,58.4779531 C87.7782917,56.3151927 89.4540729,53.7513906 90.6858438,50.7865469 C91.9176146,47.8217031 92.5335,44.6205312 92.5335,41.1830312 C92.5335,37.5163646 91.9176146,34.1862865 90.6858438,31.1927969 C89.4540729,28.1993073 87.7782917,25.6355052 85.6585,23.5013906 C83.5387083,21.367276 81.0536823,19.7201406 78.2034219,18.5599844 C75.3531615,17.3998281 72.2952188,16.81975 69.0295938,16.81975 C65.7926146,16.81975 62.7489948,17.4356354 59.8987344,18.6674062 C57.048474,19.8991771 54.5562865,21.5964427 52.4221719,23.7592031 C50.2880573,25.9219635 48.6051146,28.4929271 47.3733438,31.4720937 C46.1415729,34.4512604 45.5256875,37.6882396 45.5256875,41.1830312 C45.5256875,44.6205312 46.1415729,47.8217031 47.3733438,50.7865469 C48.6051146,53.7513906 50.2880573,56.3151927 52.4221719,58.4779531 C54.5562865,60.6407135 57.048474,62.3451406 59.8987344,63.5912344 C62.7489948,64.8373281 65.7926146,65.460375 69.0295938,65.460375 Z M69.0295938,53.6869375 C67.4254271,53.6869375 65.9143594,53.3646719 64.4963906,52.7201406 C63.0784219,52.0756094 61.846651,51.19475 60.8010781,50.0775625 C59.7555052,48.960375 58.9319375,47.6426667 58.330375,46.1244375 C57.7288125,44.6062083 57.4280313,42.9590729 57.4280313,41.1830312 C57.4280313,39.2924062 57.7288125,37.5808177 58.330375,36.0482656 C58.9319375,34.5157135 59.7555052,33.1980052 60.8010781,32.0951406 C61.846651,30.992276 63.0784219,30.147224 64.4963906,29.5599844 C65.9143594,28.9727448 67.4254271,28.679125 69.0295938,28.679125 C70.6337604,28.679125 72.1448281,28.9727448 73.5627969,29.5599844 C74.9807656,30.147224 76.2196979,30.992276 77.2795938,32.0951406 C78.3394896,33.1980052 79.1773802,34.5157135 79.7932656,36.0482656 C80.409151,37.5808177 80.7170938,39.2924062 80.7170938,41.1830312 C80.7170938,43.0450104 80.409151,44.7494375 79.7932656,46.2963125 C79.1773802,47.8431875 78.3394896,49.1608958 77.2795938,50.2494375 C76.2196979,51.3379792 74.9807656,52.1830312 73.5627969,52.7845937 C72.1448281,53.3861562 70.6337604,53.6869375 69.0295938,53.6869375 Z M110.75225,64.601 L110.75225,39.2494375 C110.75225,38.0176667 110.981417,36.8575104 111.43975,35.7689687 C111.898083,34.6804271 112.528292,33.7351146 113.330375,32.9330312 C114.132458,32.1309479 115.077771,31.5007396 116.166313,31.0424062 C117.254854,30.5840729 118.41501,30.3549062 119.646781,30.3549062 L119.646781,30.3549062 L130.00225,30.3549062 L130.00225,18.6674062 L119.646781,18.6674062 C117.068656,18.6674062 114.576469,19.132901 112.170219,20.0638906 C109.763969,20.9948802 107.615531,22.31975 105.724906,24.0385 L105.724906,24.0385 L101.857719,18.5814687 L99.021781,18.5814687 L99.021781,64.601 L110.75225,64.601 Z M155.654594,65.460375 C157.144177,65.460375 158.612276,65.2741771 160.058891,64.9017812 C161.505505,64.5293854 162.916313,64.0209219 164.291313,63.3763906 C165.666313,62.7318594 166.976859,61.9727448 168.222953,61.0990469 C169.469047,60.225349 170.650688,59.2871979 171.767875,58.2845937 L171.767875,58.2845937 L176.322563,64.601 L179.1585,64.601 L179.1585,18.6674062 L176.322563,18.6674062 L171.767875,24.1244375 C170.679333,23.0931875 169.512016,22.1335521 168.265922,21.2455312 C167.019828,20.3575104 165.709281,19.5840729 164.334281,18.9252187 C162.959281,18.2663646 161.541313,17.7507396 160.080375,17.3783437 C158.619438,17.0059479 157.144177,16.81975 155.654594,16.81975 C152.417615,16.81975 149.373995,17.414151 146.523734,18.6029531 C143.673474,19.7917552 141.181286,21.460375 139.047172,23.6088125 C136.913057,25.75725 135.230115,28.3282135 133.998344,31.3217031 C132.766573,34.3151927 132.150688,37.6023021 132.150688,41.1830312 C132.150688,45.0215729 132.766573,48.44475 133.998344,51.4525625 C135.230115,54.460375 136.913057,57.0026927 139.047172,59.0795156 C141.181286,61.1563385 143.673474,62.7390208 146.523734,63.8275625 C149.373995,64.9161042 152.417615,65.460375 155.654594,65.460375 Z M155.654594,53.6869375 C154.050427,53.6869375 152.539359,53.4148021 151.121391,52.8705312 C149.703422,52.3262604 148.471651,51.5241771 147.426078,50.4642812 C146.380505,49.4043854 145.556938,48.0938385 144.955375,46.5326406 C144.353813,44.9714427 144.053031,43.1882396 144.053031,41.1830312 C144.053031,39.1778229 144.353813,37.3946198 144.955375,35.8334219 C145.556938,34.272224 146.380505,32.9616771 147.426078,31.9017812 C148.471651,30.8418854 149.703422,30.0398021 151.121391,29.4955312 C152.539359,28.9512604 154.050427,28.679125 155.654594,28.679125 C157.25876,28.679125 158.769828,29.0300365 160.187797,29.7318594 C161.605766,30.4336823 162.844698,31.3646719 163.904594,32.5248281 C164.96449,33.6849844 165.80238,35.0170156 166.418266,36.5209219 C167.034151,38.0248281 167.342094,39.5788646 167.342094,41.1830312 C167.342094,42.7871979 167.034151,44.3412344 166.418266,45.8451406 C165.80238,47.3490469 164.96449,48.6810781 163.904594,49.8412344 C162.844698,51.0013906 161.605766,51.9323802 160.187797,52.6342031 C158.769828,53.336026 157.25876,53.6869375 155.654594,53.6869375 Z M199.912406,64.601 L199.912406,0.2767812 L188.096,0.2767812 L188.096,64.601 L199.912406,64.601 Z"/>
      <path fill="#FFF" d="M23.7835,65.460375 C25.7027708,65.460375 27.5719115,65.2383698 29.3909219,64.7943594 C31.2099323,64.350349 32.9430052,63.6986562 34.5901406,62.8392812 C36.237276,61.9799062 37.7698281,60.9343333 39.1877969,59.7025625 C40.6057656,58.4707917 41.8590208,57.0814687 42.9475625,55.5345937 L42.9475625,55.5345937 L34.3538125,46.897875 C33.8954792,47.929125 33.3010781,48.867276 32.5706094,49.7123281 C31.8401406,50.5573802 31.0094115,51.273526 30.0784219,51.8607656 C29.1474323,52.4480052 28.1519896,52.8991771 27.0920938,53.2142812 C26.0321979,53.5293854 24.9293333,53.6869375 23.7835,53.6869375 C22.1793333,53.6869375 20.6682656,53.3861562 19.2502969,52.7845937 C17.8323281,52.1830312 16.6005573,51.3523021 15.5549844,50.2924062 C14.5094115,49.2325104 13.6858438,48.0007396 13.0842813,46.5970937 C12.4827188,45.1934479 12.1819375,43.6895417 12.1819375,42.085375 C12.1819375,40.1088125 12.4827188,38.304125 13.0842813,36.6713125 C13.6858438,35.0385 14.5094115,33.6276927 15.5549844,32.4388906 C16.6005573,31.2500885 17.8323281,30.3262604 19.2502969,29.6674062 C20.6682656,29.0085521 22.1793333,28.679125 23.7835,28.679125 C24.9293333,28.679125 26.0465208,28.851 27.1350625,29.19475 C28.2236042,29.5385 29.2333698,30.0398021 30.1643594,30.6986562 C31.095349,31.3575104 31.9332396,32.1667552 32.6780313,33.1263906 C33.4228229,34.086026 34.0100625,35.1674062 34.43975,36.3705312 L34.43975,36.3705312 L43.0335,27.7338125 C42.00225,25.9864167 40.7776406,24.4395417 39.3596719,23.0931875 C37.9417031,21.7468333 36.3948281,20.6081615 34.7190469,19.6771719 C33.0432656,18.7461823 31.2815469,18.0371979 29.4338906,17.5502187 C27.5862344,17.0632396 25.7027708,16.81975 23.7835,16.81975 C20.5465208,16.81975 17.502901,17.4786042 14.6526406,18.7963125 C11.8023802,20.1140208 9.3101927,21.9115469 7.17607813,24.1888906 C5.04196354,26.4662344 3.35902083,29.1374583 2.12725,32.2025625 C0.89547917,35.2676667 0.27959375,38.5619375 0.27959375,42.085375 C0.27959375,45.3223542 0.89547917,48.3588125 2.12725,51.19475 C3.35902083,54.0306875 5.04196354,56.5085521 7.17607813,58.6283437 C9.3101927,60.7481354 11.8023802,62.4167552 14.6526406,63.6342031 C17.502901,64.851651 20.5465208,65.460375 23.7835,65.460375 Z M69.0295938,65.460375 C72.2952188,65.460375 75.3531615,64.8373281 78.2034219,63.5912344 C81.0536823,62.3451406 83.5387083,60.6407135 85.6585,58.4779531 C87.7782917,56.3151927 89.4540729,53.7513906 90.6858438,50.7865469 C91.9176146,47.8217031 92.5335,44.6205312 92.5335,41.1830312 C92.5335,37.5163646 91.9176146,34.1862865 90.6858438,31.1927969 C89.4540729,28.1993073 87.7782917,25.6355052 85.6585,23.5013906 C83.5387083,21.367276 81.0536823,19.7201406 78.2034219,18.5599844 C75.3531615,17.3998281 72.2952188,16.81975 69.0295938,16.81975 C65.7926146,16.81975 62.7489948,17.4356354 59.8987344,18.6674062 C57.048474,19.8991771 54.5562865,21.5964427 52.4221719,23.7592031 C50.2880573,25.9219635 48.6051146,28.4929271 47.3733438,31.4720937 C46.1415729,34.4512604 45.5256875,37.6882396 45.5256875,41.1830312 C45.5256875,44.6205312 46.1415729,47.8217031 47.3733438,50.7865469 C48.6051146,53.7513906 50.2880573,56.3151927 52.4221719,58.4779531 C54.5562865,60.6407135 57.048474,62.3451406 59.8987344,63.5912344 C62.7489948,64.8373281 65.7926146,65.460375 69.0295938,65.460375 Z M69.0295938,53.6869375 C67.4254271,53.6869375 65.9143594,53.3646719 64.4963906,52.7201406 C63.0784219,52.0756094 61.846651,51.19475 60.8010781,50.0775625 C59.7555052,48.960375 58.9319375,47.6426667 58.330375,46.1244375 C57.7288125,44.6062083 57.4280313,42.9590729 57.4280313,41.1830312 C57.4280313,39.2924062 57.7288125,37.5808177 58.330375,36.0482656 C58.9319375,34.5157135 59.7555052,33.1980052 60.8010781,32.0951406 C61.846651,30.992276 63.0784219,30.147224 64.4963906,29.5599844 C65.9143594,28.9727448 67.4254271,28.679125 69.0295938,28.679125 C70.6337604,28.679125 72.1448281,28.9727448 73.5627969,29.5599844 C74.9807656,30.147224 76.2196979,30.992276 77.2795938,32.0951406 C78.3394896,33.1980052 79.1773802,34.5157135 79.7932656,36.0482656 C80.409151,37.5808177 80.7170938,39.2924062 80.7170938,41.1830312 C80.7170938,43.0450104 80.409151,44.7494375 79.7932656,46.2963125 C79.1773802,47.8431875 78.3394896,49.1608958 77.2795938,50.2494375 C76.2196979,51.3379792 74.9807656,52.1830312 73.5627969,52.7845937 C72.1448281,53.3861562 70.6337604,53.6869375 69.0295938,53.6869375 Z M110.75225,64.601 L110.75225,39.2494375 C110.75225,38.0176667 110.981417,36.8575104 111.43975,35.7689687 C111.898083,34.6804271 112.528292,33.7351146 113.330375,32.9330312 C114.132458,32.1309479 115.077771,31.5007396 116.166313,31.0424062 C117.254854,30.5840729 118.41501,30.3549062 119.646781,30.3549062 L119.646781,30.3549062 L130.00225,30.3549062 L130.00225,18.6674062 L119.646781,18.6674062 C117.068656,18.6674062 114.576469,19.132901 112.170219,20.0638906 C109.763969,20.9948802 107.615531,22.31975 105.724906,24.0385 L105.724906,24.0385 L101.857719,18.5814687 L99.021781,18.5814687 L99.021781,64.601 L110.75225,64.601 Z M155.654594,65.460375 C157.144177,65.460375 158.612276,65.2741771 160.058891,64.9017812 C161.505505,64.5293854 162.916313,64.0209219 164.291313,63.3763906 C165.666313,62.7318594 166.976859,61.9727448 168.222953,61.0990469 C169.469047,60.225349 170.650688,59.2871979 171.767875,58.2845937 L171.767875,58.2845937 L176.322563,64.601 L179.1585,64.601 L179.1585,18.6674062 L176.322563,18.6674062 L171.767875,24.1244375 C170.679333,23.0931875 169.512016,22.1335521 168.265922,21.2455312 C167.019828,20.3575104 165.709281,19.5840729 164.334281,18.9252187 C162.959281,18.2663646 161.541313,17.7507396 160.080375,17.3783437 C158.619438,17.0059479 157.144177,16.81975 155.654594,16.81975 C152.417615,16.81975 149.373995,17.414151 146.523734,18.6029531 C143.673474,19.7917552 141.181286,21.460375 139.047172,23.6088125 C136.913057,25.75725 135.230115,28.3282135 133.998344,31.3217031 C132.766573,34.3151927 132.150688,37.6023021 132.150688,41.1830312 C132.150688,45.0215729 132.766573,48.44475 133.998344,51.4525625 C135.230115,54.460375 136.913057,57.0026927 139.047172,59.0795156 C141.181286,61.1563385 143.673474,62.7390208 146.523734,63.8275625 C149.373995,64.9161042 152.417615,65.460375 155.654594,65.460375 Z M155.654594,53.6869375 C154.050427,53.6869375 152.539359,53.4148021 151.121391,52.8705312 C149.703422,52.3262604 148.471651,51.5241771 147.426078,50.4642812 C146.380505,49.4043854 145.556938,48.0938385 144.955375,46.5326406 C144.353813,44.9714427 144.053031,43.1882396 144.053031,41.1830312 C144.053031,39.1778229 144.353813,37.3946198 144.955375,35.8334219 C145.556938,34.272224 146.380505,32.9616771 147.426078,31.9017812 C148.471651,30.8418854 149.703422,30.0398021 151.121391,29.4955312 C152.539359,28.9512604 154.050427,28.679125 155.654594,28.679125 C157.25876,28.679125 158.769828,29.0300365 160.187797,29.7318594 C161.605766,30.4336823 162.844698,31.3646719 163.904594,32.5248281 C164.96449,33.6849844 165.80238,35.0170156 166.418266,36.5209219 C167.034151,38.0248281 167.342094,39.5788646 167.342094,41.1830312 C167.342094,42.7871979 167.034151,44.3412344 166.418266,45.8451406 C165.80238,47.3490469 164.96449,48.6810781 163.904594,49.8412344 C162.844698,51.0013906 161.605766,51.9323802 160.187797,52.6342031 C158.769828,53.336026 157.25876,53.6869375 155.654594,53.6869375 Z M199.912406,64.601 L199.912406,0.2767812 L188.096,0.2767812 L188.096,64.601 L199.912406,64.601 Z"/>
    </g>
    <g transform="translate(0 57)">
      <path fill="#000" d="M24.4375,65.460375 C26.3567708,65.460375 28.2259115,65.2383698 30.0449219,64.7943594 C31.8639323,64.350349 33.5970052,63.6986562 35.2441406,62.8392812 C36.891276,61.9799062 38.4238281,60.9343333 39.8417969,59.7025625 C41.2597656,58.4707917 42.5130208,57.0814687 43.6015625,55.5345937 L43.6015625,55.5345937 L35.0078125,46.897875 C34.5494792,47.929125 33.9550781,48.867276 33.2246094,49.7123281 C32.4941406,50.5573802 31.6634115,51.273526 30.7324219,51.8607656 C29.8014323,52.4480052 28.8059896,52.8991771 27.7460938,53.2142812 C26.6861979,53.5293854 25.5833333,53.6869375 24.4375,53.6869375 C22.8333333,53.6869375 21.3222656,53.3861562 19.9042969,52.7845937 C18.4863281,52.1830312 17.2545573,51.3523021 16.2089844,50.2924062 C15.1634115,49.2325104 14.3398438,48.0007396 13.7382812,46.5970937 C13.1367188,45.1934479 12.8359375,43.6895417 12.8359375,42.085375 C12.8359375,40.1088125 13.1367188,38.304125 13.7382812,36.6713125 C14.3398438,35.0385 15.1634115,33.6276927 16.2089844,32.4388906 C17.2545573,31.2500885 18.4863281,30.3262604 19.9042969,29.6674062 C21.3222656,29.0085521 22.8333333,28.679125 24.4375,28.679125 C25.5833333,28.679125 26.7005208,28.851 27.7890625,29.19475 C28.8776042,29.5385 29.8873698,30.0398021 30.8183594,30.6986562 C31.749349,31.3575104 32.5872396,32.1667552 33.3320312,33.1263906 C34.0768229,34.086026 34.6640625,35.1674062 35.09375,36.3705312 L35.09375,36.3705312 L43.6875,27.7338125 C42.65625,25.9864167 41.4316406,24.4395417 40.0136719,23.0931875 C38.5957031,21.7468333 37.0488281,20.6081615 35.3730469,19.6771719 C33.6972656,18.7461823 31.9355469,18.0371979 30.0878906,17.5502187 C28.2402344,17.0632396 26.3567708,16.81975 24.4375,16.81975 C21.2005208,16.81975 18.156901,17.4786042 15.3066406,18.7963125 C12.4563802,20.1140208 9.9641927,21.9115469 7.83007812,24.1888906 C5.69596354,26.4662344 4.01302083,29.1374583 2.78125,32.2025625 C1.54947917,35.2676667 0.93359375,38.5619375 0.93359375,42.085375 C0.93359375,45.3223542 1.54947917,48.3588125 2.78125,51.19475 C4.01302083,54.0306875 5.69596354,56.5085521 7.83007812,58.6283437 C9.9641927,60.7481354 12.4563802,62.4167552 15.3066406,63.6342031 C18.156901,64.851651 21.2005208,65.460375 24.4375,65.460375 Z M69.6835938,65.460375 C72.9492188,65.460375 76.0071615,64.8373281 78.8574219,63.5912344 C81.7076823,62.3451406 84.1927083,60.6407135 86.3125,58.4779531 C88.4322917,56.3151927 90.1080729,53.7513906 91.3398438,50.7865469 C92.5716146,47.8217031 93.1875,44.6205312 93.1875,41.1830312 C93.1875,37.5163646 92.5716146,34.1862865 91.3398438,31.1927969 C90.1080729,28.1993073 88.4322917,25.6355052 86.3125,23.5013906 C84.1927083,21.367276 81.7076823,19.7201406 78.8574219,18.5599844 C76.0071615,17.3998281 72.9492188,16.81975 69.6835938,16.81975 C66.4466146,16.81975 63.4029948,17.4356354 60.5527344,18.6674062 C57.702474,19.8991771 55.2102865,21.5964427 53.0761719,23.7592031 C50.9420573,25.9219635 49.2591146,28.4929271 48.0273438,31.4720937 C46.7955729,34.4512604 46.1796875,37.6882396 46.1796875,41.1830312 C46.1796875,44.6205312 46.7955729,47.8217031 48.0273438,50.7865469 C49.2591146,53.7513906 50.9420573,56.3151927 53.0761719,58.4779531 C55.2102865,60.6407135 57.702474,62.3451406 60.5527344,63.5912344 C63.4029948,64.8373281 66.4466146,65.460375 69.6835938,65.460375 Z M69.6835938,53.6869375 C68.0794271,53.6869375 66.5683594,53.3646719 65.1503906,52.7201406 C63.7324219,52.0756094 62.500651,51.19475 61.4550781,50.0775625 C60.4095052,48.960375 59.5859375,47.6426667 58.984375,46.1244375 C58.3828125,44.6062083 58.0820312,42.9590729 58.0820312,41.1830312 C58.0820312,39.2924062 58.3828125,37.5808177 58.984375,36.0482656 C59.5859375,34.5157135 60.4095052,33.1980052 61.4550781,32.0951406 C62.500651,30.992276 63.7324219,30.147224 65.1503906,29.5599844 C66.5683594,28.9727448 68.0794271,28.679125 69.6835938,28.679125 C71.2877604,28.679125 72.7988281,28.9727448 74.2167969,29.5599844 C75.6347656,30.147224 76.8736979,30.992276 77.9335938,32.0951406 C78.9934896,33.1980052 79.8313802,34.5157135 80.4472656,36.0482656 C81.063151,37.5808177 81.3710938,39.2924062 81.3710938,41.1830312 C81.3710938,43.0450104 81.063151,44.7494375 80.4472656,46.2963125 C79.8313802,47.8431875 78.9934896,49.1608958 77.9335938,50.2494375 C76.8736979,51.3379792 75.6347656,52.1830312 74.2167969,52.7845937 C72.7988281,53.3861562 71.2877604,53.6869375 69.6835938,53.6869375 Z M120.644531,65.460375 C122.134115,65.460375 123.602214,65.2741771 125.048828,64.9017812 C126.495443,64.5293854 127.90625,64.0209219 129.28125,63.3763906 C130.65625,62.7318594 131.966797,61.9727448 133.212891,61.0990469 C134.458984,60.225349 135.640625,59.2871979 136.757812,58.2845937 L136.757812,58.2845937 L141.3125,64.601 L144.148438,64.601 L144.148438,0.2767812 L132.332031,0.2767812 L132.332031,21.7611562 C131.701823,20.8444896 130.928385,20.0710521 130.011719,19.4408437 C129.095052,18.8106354 128.113932,18.3021719 127.068359,17.9154531 C126.022786,17.5287344 124.948568,17.2494375 123.845703,17.0775625 C122.742839,16.9056875 121.675781,16.81975 120.644531,16.81975 C117.407552,16.81975 114.363932,17.4356354 111.513672,18.6674062 C108.663411,19.8991771 106.171224,21.6036042 104.037109,23.7806875 C101.902995,25.9577708 100.220052,28.5358958 98.9882812,31.5150625 C97.7565104,34.4942292 97.140625,37.7168854 97.140625,41.1830312 C97.140625,44.6778229 97.7565104,47.9076406 98.9882812,50.8724844 C100.220052,53.8373281 101.902995,56.4011302 104.037109,58.5638906 C106.171224,60.726651 108.663411,62.4167552 111.513672,63.6342031 C114.363932,64.851651 117.407552,65.460375 120.644531,65.460375 Z M120.644531,53.6869375 C119.040365,53.6869375 117.529297,53.3575104 116.111328,52.6986562 C114.693359,52.0398021 113.461589,51.1374583 112.416016,49.991625 C111.370443,48.8457917 110.546875,47.5137604 109.945312,45.9955312 C109.34375,44.4773021 109.042969,42.8731354 109.042969,41.1830312 C109.042969,39.2351146 109.34375,37.4877187 109.945312,35.9408437 C110.546875,34.3939687 111.370443,33.0834219 112.416016,32.0092031 C113.461589,30.9349844 114.693359,30.1114167 116.111328,29.5385 C117.529297,28.9655833 119.040365,28.679125 120.644531,28.679125 C122.248698,28.679125 123.759766,29.0300365 125.177734,29.7318594 C126.595703,30.4336823 127.834635,31.3646719 128.894531,32.5248281 C129.954427,33.6849844 130.792318,35.0170156 131.408203,36.5209219 C132.024089,38.0248281 132.332031,39.5788646 132.332031,41.1830312 C132.332031,42.7871979 132.024089,44.3412344 131.408203,45.8451406 C130.792318,47.3490469 129.954427,48.6810781 128.894531,49.8412344 C127.834635,51.0013906 126.595703,51.9323802 125.177734,52.6342031 C123.759766,53.336026 122.248698,53.6869375 120.644531,53.6869375 Z M174.140625,65.460375 C176.059896,65.460375 177.929036,65.2383698 179.748047,64.7943594 C181.567057,64.350349 183.30013,63.6986562 184.947266,62.8392812 C186.594401,61.9799062 188.126953,60.9343333 189.544922,59.7025625 C190.962891,58.4707917 192.216146,57.0814687 193.304688,55.5345937 L193.304688,55.5345937 L184.710938,46.897875 C184.252604,47.929125 183.658203,48.867276 182.927734,49.7123281 C182.197266,50.5573802 181.366536,51.273526 180.435547,51.8607656 C179.504557,52.4480052 178.509115,52.8991771 177.449219,53.2142812 C176.389323,53.5293854 175.286458,53.6869375 174.140625,53.6869375 C173.682292,53.6869375 173.223958,53.6654531 172.765625,53.6224844 C172.307292,53.5795156 171.848958,53.4864167 171.390625,53.3431875 L171.390625,53.3431875 L193.390625,26.8314687 C192.302083,25.2845937 191.041667,23.8881094 189.609375,22.6420156 C188.177083,21.3959219 186.63737,20.3431875 184.990234,19.4838125 C183.343099,18.6244375 181.602865,17.9655833 179.769531,17.50725 C177.936198,17.0489167 176.059896,16.81975 174.140625,16.81975 C170.903646,16.81975 167.860026,17.4069896 165.009766,18.5814687 C162.159505,19.7559479 159.667318,21.4030833 157.533203,23.522875 C155.399089,25.6426667 153.716146,28.2064687 152.484375,31.2142812 C151.252604,34.2220937 150.636719,37.5450104 150.636719,41.1830312 C150.636719,44.7351146 151.252604,47.9935781 152.484375,50.9584219 C153.716146,53.9232656 155.399089,56.4799062 157.533203,58.6283437 C159.667318,60.7767812 162.159505,62.4525625 165.009766,63.6556875 C167.860026,64.8588125 170.903646,65.460375 174.140625,65.460375 Z M163.742188,47.2845937 C163.513021,46.8835521 163.326823,46.4252187 163.183594,45.9095937 C163.040365,45.3939687 162.91862,44.8568594 162.818359,44.2982656 C162.718099,43.7396719 162.646484,43.1882396 162.603516,42.6439687 C162.560547,42.0996979 162.539062,41.6127187 162.539062,41.1830312 C162.539062,39.2637604 162.839844,37.537849 163.441406,36.0052969 C164.042969,34.4727448 164.866536,33.1621979 165.912109,32.0736562 C166.957682,30.9851146 168.189453,30.147224 169.607422,29.5599844 C171.025391,28.9727448 172.536458,28.679125 174.140625,28.679125 C174.713542,28.679125 175.264974,28.7077708 175.794922,28.7650625 C176.32487,28.8223542 176.861979,28.9512604 177.40625,29.1517812 L177.40625,29.1517812 L163.742188,47.2845937 Z"/>
      <path fill="#FFF" d="M24.4375,65.460375 C26.3567708,65.460375 28.2259115,65.2383698 30.0449219,64.7943594 C31.8639323,64.350349 33.5970052,63.6986562 35.2441406,62.8392812 C36.891276,61.9799062 38.4238281,60.9343333 39.8417969,59.7025625 C41.2597656,58.4707917 42.5130208,57.0814687 43.6015625,55.5345937 L43.6015625,55.5345937 L35.0078125,46.897875 C34.5494792,47.929125 33.9550781,48.867276 33.2246094,49.7123281 C32.4941406,50.5573802 31.6634115,51.273526 30.7324219,51.8607656 C29.8014323,52.4480052 28.8059896,52.8991771 27.7460938,53.2142812 C26.6861979,53.5293854 25.5833333,53.6869375 24.4375,53.6869375 C22.8333333,53.6869375 21.3222656,53.3861562 19.9042969,52.7845937 C18.4863281,52.1830312 17.2545573,51.3523021 16.2089844,50.2924062 C15.1634115,49.2325104 14.3398438,48.0007396 13.7382812,46.5970937 C13.1367188,45.1934479 12.8359375,43.6895417 12.8359375,42.085375 C12.8359375,40.1088125 13.1367188,38.304125 13.7382812,36.6713125 C14.3398438,35.0385 15.1634115,33.6276927 16.2089844,32.4388906 C17.2545573,31.2500885 18.4863281,30.3262604 19.9042969,29.6674062 C21.3222656,29.0085521 22.8333333,28.679125 24.4375,28.679125 C25.5833333,28.679125 26.7005208,28.851 27.7890625,29.19475 C28.8776042,29.5385 29.8873698,30.0398021 30.8183594,30.6986562 C31.749349,31.3575104 32.5872396,32.1667552 33.3320312,33.1263906 C34.0768229,34.086026 34.6640625,35.1674062 35.09375,36.3705312 L35.09375,36.3705312 L43.6875,27.7338125 C42.65625,25.9864167 41.4316406,24.4395417 40.0136719,23.0931875 C38.5957031,21.7468333 37.0488281,20.6081615 35.3730469,19.6771719 C33.6972656,18.7461823 31.9355469,18.0371979 30.0878906,17.5502187 C28.2402344,17.0632396 26.3567708,16.81975 24.4375,16.81975 C21.2005208,16.81975 18.156901,17.4786042 15.3066406,18.7963125 C12.4563802,20.1140208 9.9641927,21.9115469 7.83007812,24.1888906 C5.69596354,26.4662344 4.01302083,29.1374583 2.78125,32.2025625 C1.54947917,35.2676667 0.93359375,38.5619375 0.93359375,42.085375 C0.93359375,45.3223542 1.54947917,48.3588125 2.78125,51.19475 C4.01302083,54.0306875 5.69596354,56.5085521 7.83007812,58.6283437 C9.9641927,60.7481354 12.4563802,62.4167552 15.3066406,63.6342031 C18.156901,64.851651 21.2005208,65.460375 24.4375,65.460375 Z M69.6835938,65.460375 C72.9492188,65.460375 76.0071615,64.8373281 78.8574219,63.5912344 C81.7076823,62.3451406 84.1927083,60.6407135 86.3125,58.4779531 C88.4322917,56.3151927 90.1080729,53.7513906 91.3398438,50.7865469 C92.5716146,47.8217031 93.1875,44.6205312 93.1875,41.1830312 C93.1875,37.5163646 92.5716146,34.1862865 91.3398438,31.1927969 C90.1080729,28.1993073 88.4322917,25.6355052 86.3125,23.5013906 C84.1927083,21.367276 81.7076823,19.7201406 78.8574219,18.5599844 C76.0071615,17.3998281 72.9492188,16.81975 69.6835938,16.81975 C66.4466146,16.81975 63.4029948,17.4356354 60.5527344,18.6674062 C57.702474,19.8991771 55.2102865,21.5964427 53.0761719,23.7592031 C50.9420573,25.9219635 49.2591146,28.4929271 48.0273438,31.4720937 C46.7955729,34.4512604 46.1796875,37.6882396 46.1796875,41.1830312 C46.1796875,44.6205312 46.7955729,47.8217031 48.0273438,50.7865469 C49.2591146,53.7513906 50.9420573,56.3151927 53.0761719,58.4779531 C55.2102865,60.6407135 57.702474,62.3451406 60.5527344,63.5912344 C63.4029948,64.8373281 66.4466146,65.460375 69.6835938,65.460375 Z M69.6835938,53.6869375 C68.0794271,53.6869375 66.5683594,53.3646719 65.1503906,52.7201406 C63.7324219,52.0756094 62.500651,51.19475 61.4550781,50.0775625 C60.4095052,48.960375 59.5859375,47.6426667 58.984375,46.1244375 C58.3828125,44.6062083 58.0820312,42.9590729 58.0820312,41.1830312 C58.0820312,39.2924062 58.3828125,37.5808177 58.984375,36.0482656 C59.5859375,34.5157135 60.4095052,33.1980052 61.4550781,32.0951406 C62.500651,30.992276 63.7324219,30.147224 65.1503906,29.5599844 C66.5683594,28.9727448 68.0794271,28.679125 69.6835938,28.679125 C71.2877604,28.679125 72.7988281,28.9727448 74.2167969,29.5599844 C75.6347656,30.147224 76.8736979,30.992276 77.9335938,32.0951406 C78.9934896,33.1980052 79.8313802,34.5157135 80.4472656,36.0482656 C81.063151,37.5808177 81.3710938,39.2924062 81.3710938,41.1830312 C81.3710938,43.0450104 81.063151,44.7494375 80.4472656,46.2963125 C79.8313802,47.8431875 78.9934896,49.1608958 77.9335938,50.2494375 C76.8736979,51.3379792 75.6347656,52.1830312 74.2167969,52.7845937 C72.7988281,53.3861562 71.2877604,53.6869375 69.6835938,53.6869375 Z M120.644531,65.460375 C122.134115,65.460375 123.602214,65.2741771 125.048828,64.9017812 C126.495443,64.5293854 127.90625,64.0209219 129.28125,63.3763906 C130.65625,62.7318594 131.966797,61.9727448 133.212891,61.0990469 C134.458984,60.225349 135.640625,59.2871979 136.757812,58.2845937 L136.757812,58.2845937 L141.3125,64.601 L144.148438,64.601 L144.148438,0.2767812 L132.332031,0.2767812 L132.332031,21.7611562 C131.701823,20.8444896 130.928385,20.0710521 130.011719,19.4408437 C129.095052,18.8106354 128.113932,18.3021719 127.068359,17.9154531 C126.022786,17.5287344 124.948568,17.2494375 123.845703,17.0775625 C122.742839,16.9056875 121.675781,16.81975 120.644531,16.81975 C117.407552,16.81975 114.363932,17.4356354 111.513672,18.6674062 C108.663411,19.8991771 106.171224,21.6036042 104.037109,23.7806875 C101.902995,25.9577708 100.220052,28.5358958 98.9882812,31.5150625 C97.7565104,34.4942292 97.140625,37.7168854 97.140625,41.1830312 C97.140625,44.6778229 97.7565104,47.9076406 98.9882812,50.8724844 C100.220052,53.8373281 101.902995,56.4011302 104.037109,58.5638906 C106.171224,60.726651 108.663411,62.4167552 111.513672,63.6342031 C114.363932,64.851651 117.407552,65.460375 120.644531,65.460375 Z M120.644531,53.6869375 C119.040365,53.6869375 117.529297,53.3575104 116.111328,52.6986562 C114.693359,52.0398021 113.461589,51.1374583 112.416016,49.991625 C111.370443,48.8457917 110.546875,47.5137604 109.945312,45.9955312 C109.34375,44.4773021 109.042969,42.8731354 109.042969,41.1830312 C109.042969,39.2351146 109.34375,37.4877187 109.945312,35.9408437 C110.546875,34.3939687 111.370443,33.0834219 112.416016,32.0092031 C113.461589,30.9349844 114.693359,30.1114167 116.111328,29.5385 C117.529297,28.9655833 119.040365,28.679125 120.644531,28.679125 C122.248698,28.679125 123.759766,29.0300365 125.177734,29.7318594 C126.595703,30.4336823 127.834635,31.3646719 128.894531,32.5248281 C129.954427,33.6849844 130.792318,35.0170156 131.408203,36.5209219 C132.024089,38.0248281 132.332031,39.5788646 132.332031,41.1830312 C132.332031,42.7871979 132.024089,44.3412344 131.408203,45.8451406 C130.792318,47.3490469 129.954427,48.6810781 128.894531,49.8412344 C127.834635,51.0013906 126.595703,51.9323802 125.177734,52.6342031 C123.759766,53.336026 122.248698,53.6869375 120.644531,53.6869375 Z M174.140625,65.460375 C176.059896,65.460375 177.929036,65.2383698 179.748047,64.7943594 C181.567057,64.350349 183.30013,63.6986562 184.947266,62.8392812 C186.594401,61.9799062 188.126953,60.9343333 189.544922,59.7025625 C190.962891,58.4707917 192.216146,57.0814687 193.304688,55.5345937 L193.304688,55.5345937 L184.710938,46.897875 C184.252604,47.929125 183.658203,48.867276 182.927734,49.7123281 C182.197266,50.5573802 181.366536,51.273526 180.435547,51.8607656 C179.504557,52.4480052 178.509115,52.8991771 177.449219,53.2142812 C176.389323,53.5293854 175.286458,53.6869375 174.140625,53.6869375 C173.682292,53.6869375 173.223958,53.6654531 172.765625,53.6224844 C172.307292,53.5795156 171.848958,53.4864167 171.390625,53.3431875 L171.390625,53.3431875 L193.390625,26.8314687 C192.302083,25.2845937 191.041667,23.8881094 189.609375,22.6420156 C188.177083,21.3959219 186.63737,20.3431875 184.990234,19.4838125 C183.343099,18.6244375 181.602865,17.9655833 179.769531,17.50725 C177.936198,17.0489167 176.059896,16.81975 174.140625,16.81975 C170.903646,16.81975 167.860026,17.4069896 165.009766,18.5814687 C162.159505,19.7559479 159.667318,21.4030833 157.533203,23.522875 C155.399089,25.6426667 153.716146,28.2064687 152.484375,31.2142812 C151.252604,34.2220937 150.636719,37.5450104 150.636719,41.1830312 C150.636719,44.7351146 151.252604,47.9935781 152.484375,50.9584219 C153.716146,53.9232656 155.399089,56.4799062 157.533203,58.6283437 C159.667318,60.7767812 162.159505,62.4525625 165.009766,63.6556875 C167.860026,64.8588125 170.903646,65.460375 174.140625,65.460375 Z M163.742188,47.2845937 C163.513021,46.8835521 163.326823,46.4252187 163.183594,45.9095937 C163.040365,45.3939687 162.91862,44.8568594 162.818359,44.2982656 C162.718099,43.7396719 162.646484,43.1882396 162.603516,42.6439687 C162.560547,42.0996979 162.539062,41.6127187 162.539062,41.1830312 C162.539062,39.2637604 162.839844,37.537849 163.441406,36.0052969 C164.042969,34.4727448 164.866536,33.1621979 165.912109,32.0736562 C166.957682,30.9851146 168.189453,30.147224 169.607422,29.5599844 C171.025391,28.9727448 172.536458,28.679125 174.140625,28.679125 C174.713542,28.679125 175.264974,28.7077708 175.794922,28.7650625 C176.32487,28.8223542 176.861979,28.9512604 177.40625,29.1517812 L177.40625,29.1517812 L163.742188,47.2845937 Z"/>
    </g>
    <path fill="url(#logo-home-a)" d="M222.362385,33.4515557 C223.582421,33.3114544 224.557887,33.9151116 225.288782,35.2625272 C225.91841,35.9104046 226.446362,35.5077043 226.87264,34.0544264 C227.298918,32.6011485 228.198508,32.0409705 229.57141,32.3738924 C231.111456,32.8513314 231.429448,34.0074084 230.525385,35.8421234 C229.16929,38.5941959 220.776855,49.0528787 217.127047,50.8654836 C216.834388,51.0001405 216.644804,51.4538361 216.558295,52.2265705 C216.428532,53.3856722 215.910927,58.775395 217.127047,62.6889737 C217.937794,65.2980262 219.169397,65.2133968 220.821857,62.4350856 C221.500672,60.9783287 220.273772,58.8857338 221.535527,57.0738549 C222.797281,55.2619759 221.55236,55.2619759 224.399373,52.852852 C226.297382,51.2467694 227.32181,51.9210216 227.472658,54.8756087 C227.69664,56.9962427 227.496634,58.725186 226.87264,60.0624389 C226.248645,61.3996917 224.457989,64.2083097 221.500672,68.488293 C220.598476,70.3840149 220.598476,72.1991605 221.500672,73.9337297 C222.853966,76.5355835 224.920594,80.69688 225.707846,81.1202688 C226.495099,81.5436575 228.511303,81.5177062 228.651368,80.0842094 C228.791432,78.6507126 228.499918,75.5575971 227.986288,74.8834054 C227.472658,74.2092137 227.206987,72.5330805 227.472658,71.9414613 C227.738328,71.3498422 229.913122,70.7115832 230.525385,71.6734179 C231.137647,72.6352527 232.660825,73.3125296 232.363166,75.6942503 C232.065506,78.075971 231.963575,83.4079837 230.935231,85.2657767 C230.249669,86.5043053 230.497989,88.3703253 231.680193,90.8638366 C234.310633,95.9164333 236.054903,98.6220322 236.913,98.9806332 C237.771098,99.3392343 238.838179,99.1599337 240.114241,98.4427317 C241.586694,95.868644 242.152073,93.4498413 241.810376,91.1863234 C241.468679,88.9228056 240.776116,88.5804462 240.314643,87.083795 L238.986677,84.6157215 C238.049781,83.0867067 237.226383,82.2355132 236.516483,82.0621409 C235.451631,81.8020826 234.370696,78.8303761 235.897127,78.7095116 C237.423558,78.588647 239.401991,78.1062778 240.448588,80.0842094 C241.14632,81.4028304 241.80887,81.682186 242.436238,80.922276 C243.073245,78.8906874 243.073245,77.3215658 242.436238,76.2149114 C241.799231,75.108257 239.077764,72.1386072 234.271837,67.3059621 C232.383829,66.1787402 231.41868,65.1274366 231.376389,64.1520514 C231.312953,62.6889737 229.856645,60.2945495 232.650524,59.0423496 C234.513109,58.2075496 236.177557,59.8386157 237.643866,63.9355479 C238.815708,66.7036963 240.007611,67.9574691 241.219575,67.6968663 C242.431539,67.4362635 243.037521,66.9241924 243.037521,66.1606528 C243.127283,64.3334087 242.718234,62.9562307 241.810376,62.0291188 C240.902517,61.1020068 239.408135,58.7175035 237.32723,54.8756087 C235.820558,52.8458349 235.128549,50.273683 235.251204,47.1591531 C235.435185,42.4873582 236.509434,40.1713327 237.32723,39.9459367 C238.145025,39.7205407 239.649769,38.6512708 241.219575,40.7918068 C242.266112,42.2188309 242.127012,43.9788071 240.802273,46.0717353 C239.658625,48.5858142 239.54073,50.2995134 240.448588,51.212833 C241.356447,52.1261526 242.379007,54.0798265 243.51627,57.0738549 C243.919174,57.8677618 243.734977,57.9108326 244.353223,57.669285 C244.971469,57.4277375 245.145743,57.0834732 245.436328,55.979541 C245.726913,54.8756087 245.468433,53.2407927 244.74468,51.7988263 C244.020928,50.3568598 244.749676,48.4692446 245.170115,47.9801607 C245.590553,47.4910768 246.390031,46.6368586 248.458286,47.8870624 C249.837122,48.7205315 250.910862,50.2143087 250.52654,52.852852 L249.413435,57.669285 C248.592928,64.2289982 247.855737,68.2029487 247.201862,69.5911364 C246.22105,71.6734179 246.036888,75.9951412 247.547053,76.8607925 C249.057219,77.7264438 249.076918,76.2149114 249.413435,76.2149114 C249.749951,76.2149114 252.353161,75.0120735 252.232435,76.8607925 C252.111708,78.7095116 251.177162,81.8371079 249.71742,84.1124823 C248.744258,85.6293986 248.324547,87.2430428 248.458286,88.9534149 C247.693564,94.5301209 245.886642,99.023825 243.037521,102.434527 C242.381718,103.179919 242.21334,103.986046 242.532385,104.852907 C243.010954,106.153198 244.429671,107.833143 245.170115,107.642591 C246.531119,107.559957 247.297227,106.763631 247.468437,105.253611 C247.725252,102.988581 248.582627,102.963174 248.864382,102.988581 C249.146137,103.013988 252.123094,102.332355 251.324817,106.486756 C250.52654,110.641156 250.024658,109.435051 250.023573,112.201324 C250.022489,114.967598 249.266502,117.596129 250.022489,118.300264 C250.778475,119.0044 250.398223,121.937452 252.835886,121.17615 C254.460995,120.668616 255.538618,119.16773 256.068754,116.673493 C256.643832,109.257324 256.580697,105.180898 255.879351,104.444218 C254.827331,103.339197 256.055199,97.0894483 257.885073,94.1378858 C259.104989,92.1701776 259.104989,87.0273861 257.885073,78.7095116 C254.929443,74.7581249 253.469459,72.0667418 253.505123,70.6353623 C253.558619,68.488293 252.45708,66.2161852 254.551901,64.4525794 C255.948449,63.2768423 257.059507,63.8462001 257.885073,66.1606528 C258.440753,68.4517554 258.817089,69.9433252 259.014083,70.6353623 C259.309574,71.6734179 260.37081,74.6817831 261.162762,74.4572944 C261.954713,74.2328058 262.645095,72.6646522 262.645095,71.3993858 C262.645095,70.1341193 262.738713,64.2444239 264.077729,62.0291188 C264.970406,60.5522487 264.69359,57.874295 263.247282,53.9952577 C260.054656,49.5414182 258.466296,46.9002441 258.4822,46.0717353 C258.506056,44.8289722 257.521448,40.5949029 256.700399,40.4785754 C255.879351,40.3622478 251.585427,38.6438302 251.324817,38.1598276 C251.064207,37.6758251 248.315329,36.3165529 248.864382,33.6477337 C249.413435,30.9789144 250.52654,32.3738924 251.788204,32.860481 C253.455845,33.3666843 254.473224,33.4804712 254.840344,33.2018416 C255.391023,32.7838971 255.341142,29.6065758 254.551901,28.5235135 C253.762661,27.4404512 250.841188,20.8892675 254.551901,18.3678086 C257.02571,16.686836 258.624493,16.991296 259.34825,19.2811887 C259.907905,21.4244469 259.992124,23.1444374 259.600908,24.44116 C259.014083,26.386244 257.61615,27.3157757 258.4822,29.3123995 C259.34825,31.3090233 260.549009,32.8463257 261.162762,34.0544264 C261.776515,35.2625272 262.875524,37.4796471 262.645095,40.1530034 C262.414667,42.8263596 263.700729,45.498627 263.889229,45.6741165 C264.077729,45.849606 265.263306,49.3557659 266.526416,48.9895428 C267.789526,48.6233197 269.675065,47.2580587 269.631871,45.6741165 C269.603075,44.618155 269.523554,41.3408239 269.393309,35.8421234 C267.530362,30.546739 266.252733,27.6919801 265.560424,27.2778467 C264.521959,26.6566466 263.781334,21.9011903 264.521959,20.7631401 C265.262583,19.62509 265.565484,19.0367375 266.987454,19.62509 C268.409424,20.2134425 269.631871,23.0855174 269.631871,24.0524336 C269.631871,25.0193498 270.600755,26.7974738 271.23981,26.1590332 C271.878865,25.5205927 273.56994,22.621296 272.920583,21.123193 C272.271227,19.62509 270.938175,16.9669779 271.464817,14.6431488 C271.815912,13.0939294 272.768109,11.5505172 274.321408,10.0129124 C275.359632,5.72010469 275.537589,3.26186067 274.85528,2.63818039 C273.831815,1.70265996 274.617261,-0.308482123 276.559186,0.0401376146 C278.501112,0.388757352 280.74395,1.07637848 280.331528,3.61344456 C280.05658,5.30482194 279.919106,7.21784477 279.919106,9.35251306 C279.5156,11.8200125 278.854737,13.5835577 277.936517,14.6431488 C276.559186,16.2325354 277.156132,18.9372874 277.546324,19.2811887 C277.936517,19.62509 279.752655,21.123193 280.331528,21.123193 C280.910401,21.123193 281.910732,21.9540005 281.12113,22.6436179 C280.594729,23.1033628 279.416681,24.0524336 278.415627,26.1590332 C278.160439,26.7167758 277.546324,27.0784626 277.546324,27.809941 C277.546324,28.9071585 279.541926,29.6430529 280.331528,29.3123995 C281.12113,28.9817461 285.325232,29.5410621 285.796209,28.5235135 C286.267187,27.5059649 294.984255,21.1838067 296.171821,17.5284716 C297.359387,13.8731365 296.053986,7.20907333 296.505265,7.20907333 C296.956543,7.20907333 296.329055,5.67812272 298.906782,6.12220003 C300.625267,6.41825156 301.242153,7.07502138 300.75744,8.0925095 C300.584061,10.041828 300.914493,10.8975585 301.748735,10.659701 C303.000097,10.3029147 303.936632,7.72229384 304.610025,7.46568359 C305.283419,7.20907333 307.050942,6.12183707 307.624212,7.46568359 C308.197482,8.8095301 308.952384,9.82980088 307.920606,11.1912508 C306.888828,12.5527007 304.332788,17.4066997 301.969043,18.9396466 C299.605297,20.4725934 292.249655,27.0963685 292.273512,27.809941 C292.297368,28.5235135 290.599606,31.2962291 294.494662,32.3738924 C297.091367,33.0923346 298.954254,32.0718369 300.083324,29.3123995 C301.257696,28.4772365 302.095552,28.3267306 302.596893,28.8608816 C303.348903,29.6621081 304.100914,31.1003233 303.348903,32.5773749 C302.596893,34.0544264 300.878528,34.0855046 301.140223,34.963814 C301.401917,35.8421234 301.844882,36.2867905 302.596893,36.1880663 C303.098233,36.1222502 303.634273,35.8858445 304.205013,35.4788493 C306.090009,35.1028263 306.908226,35.5474481 306.659665,36.8127145 C306.286822,38.7106142 306.224652,39.0928074 304.610025,39.6229054 C302.995399,40.1530034 300.509842,40.1530034 299.10215,40.1530034 C297.694457,40.1530034 290.83383,37.755857 289.59548,35.4788493 C288.769913,33.9608441 286.442253,33.4860365 282.6125,34.0544264 C278.492136,34.3550754 276.355144,35.5531344 276.201525,37.6486034 C275.971096,40.7918068 276.163753,42.7644755 274.85528,46.671884 C273.546807,50.5792924 272.56003,51.7443828 273.246075,53.3099957 C273.93212,54.8756087 275.326258,55.6185807 276.201525,54.2357164 C277.076792,52.852852 278.944077,49.1837245 278.679852,48.1714388 C278.415627,47.1591531 279.257098,45.2764976 280.934799,45.6741165 C282.6125,46.0717353 283.225711,47.4193929 283.10896,48.5549024 C282.99221,49.6904119 282.140257,51.0636578 283.225711,50.8654836 C284.311165,50.6673093 285.266856,48.3102697 285.304086,47.4910768 C285.341316,46.671884 287.467223,45.4715867 288.10917,46.0717353 C288.751117,46.671884 290.753406,47.0892839 290.388335,48.5549024 C290.023264,50.0205208 288.284115,52.0022634 287.434331,52.6561296 C286.584546,53.3099957 275.291558,59.6345131 272.920583,63.6656897 C270.549609,67.6968663 269.291559,67.1319245 268.281107,71.6734179 C267.270655,76.2149114 268.07833,79.0662978 268.281107,79.2584833 C268.483884,79.4506688 269.864106,80.9269944 270.551958,80.6212036 C271.23981,80.3154127 273.571567,77.9725283 273.246075,76.2149114 C272.920583,74.4572944 273.247521,71.0926875 274.321408,71.0660102 C275.395296,71.0393329 277.936517,70.1905591 277.936517,71.0660102 C277.936517,71.9414613 278.774554,72.7697281 278.160439,73.9337297 C277.546324,75.0977312 277.457406,75.6942503 277.936517,75.6942503 C278.415627,75.6942503 279.919106,75.5690303 280.331528,76.2149114 C280.74395,76.8607925 281.688797,77.0981661 281.12113,78.4222315 C280.553462,79.7462969 280.417735,80.4429919 279.416681,80.922276 C278.415627,81.4015601 267.804346,86.022904 267.755369,86.7820275 C267.706391,87.5411511 265.918808,88.5579738 266.034655,91.1863234 C266.150501,93.8146731 265.64645,94.7380345 265.084204,96.0962178 C264.521959,97.4544011 263.247282,99.0514097 263.247282,100.742969 C263.247282,102.434527 263.267524,104.67034 264.077729,105.457411 C264.887934,106.244482 265.086192,105.661211 265.560424,105.457411 C266.034655,105.253611 267.425178,101.418431 267.406202,100.094365 C267.387225,98.7702999 268.656119,96.3268766 269.393309,96.3147176 C270.1305,96.3025585 270.823232,95.3390905 271.464817,95.7176541 C272.106402,96.0962178 273.571567,97.3162961 273.246075,99.3711744 C272.920583,101.426053 271.757597,105.957383 270.019352,108.070335 C268.281107,110.183286 261.519636,121.623434 261.162762,122.91689 C260.805888,124.210345 260.114176,126.716682 261.680729,128.494806 C263.247282,130.27293 264.86462,130.14281 265.560424,130.27293 C266.256227,130.40305 273.491685,126.409076 274.321408,122.91689 C275.151132,119.424704 272.744554,118.767026 272.700818,117.537874 C272.657082,116.308722 273.266136,113.897783 272.657082,113.049554 C272.048027,112.201324 271.014804,111.997343 271.23981,110.734799 C271.464817,109.472254 272.512318,108.161981 273.246075,109.020736 C273.979832,109.879492 275.29698,109.807263 275.508793,111.257638 C275.720607,112.708012 275.675967,113.252628 277.546324,113.838803 C279.416681,114.424978 280.934799,112.187169 280.934799,111.722403 C280.934799,111.257638 281.246375,102.822709 280.331528,101.782839 C279.416681,100.742969 277.635785,93.1813139 278.983656,91.1863234 C280.331528,89.1913329 280.146824,88.4565274 281.12113,88.9534149 C282.095436,89.4503024 282.6125,89.4533875 282.6125,90.1428234 C282.6125,90.8322593 283.226253,93.5671367 282.6125,94.6423954 C281.998746,95.7176541 283.71693,98.5176822 284.631235,98.1993693 C285.545539,97.8810564 287.325894,94.2469543 287.167034,93.0809565 C287.008173,91.9149586 288.537858,82.4920629 287.167034,80.0842094 C285.796209,77.6763558 287.794342,69.2797197 288.10917,68.488293 C288.423999,67.6968663 288.423999,65.278487 289.963623,65.5013423 C291.503248,65.7241976 293.659517,64.9501928 293.413004,66.9379242 C293.16649,68.9256556 293.256674,70.787804 292.273512,72.1438096 C291.29035,73.4998151 291.046728,75.095372 292.041276,75.083213 C293.035824,75.0710539 294.675752,73.5241332 294.68768,72.8339714 C294.699608,72.1438096 295.523187,71.2030263 296.505265,71.6734179 C297.487342,72.1438096 299.773013,73.7823768 299.10215,74.8834054 C298.431286,75.984434 297.986514,77.5946906 295.699759,79.2584833 C294.175255,80.3676784 293.413004,82.4572191 293.413004,85.5271054 C293.276011,88.8684831 292.818769,90.8261496 292.041276,91.4001048 C290.875036,92.2610377 291.574635,95.7332612 292.780816,95.4167631 C293.986997,95.1002651 295.671927,92.5372476 295.921874,91.8617855 C296.171821,91.1863234 297.93254,85.3957401 297.544272,83.8212097 C297.156003,82.2466793 299.437401,80.5595009 300.288812,81.1202688 C301.140223,81.6810366 302.455021,82.2321861 301.969043,84.1124823 C301.483064,85.9927786 302.435683,90.8044932 301.140223,92.7234443 C299.844762,94.6423954 289.029981,109.929035 287.167034,111.257638 C285.304086,112.58624 286.224897,115.982605 287.167034,115.919633 C288.10917,115.85666 290.388335,114.726776 291.471078,114.050951 C292.553821,113.375126 295.405714,113.5635 295.405714,114.726776 C295.405714,115.502293 295.251191,116.693456 294.942146,118.300264 C294.055647,120.329614 291.626143,121.17615 290.701537,121.17615 C289.776931,121.17615 288.360503,122.311478 286.452253,124.582134 C278.810217,131.895345 273.032213,136.12639 269.118241,137.275268 C265.204268,138.424147 264.346626,143 263.684825,143 C263.243625,143 259.278084,143 251.788204,143 C251.434622,142.674377 249.13889,134.1265 247.769956,131.29081 C244.988833,125.52983 241.884256,122.759134 240.776116,122.270308 C238.295727,121.17615 237.946017,123.410026 232.809719,123.410026 C227.673421,123.410026 228.969498,124.664611 225.733738,124.457484 C220.880099,124.146793 217.298787,121.693933 216.050316,119.7993 C215.218002,118.536211 215.218002,117.400157 216.050316,116.391138 C216.632984,115.920504 217.509998,115.73334 218.681359,115.829644 C219.852719,115.925949 220.881063,116.630326 221.766391,117.942777 C222.651718,119.255228 225.037814,118.854161 225.733738,117.480734 C226.429663,116.107306 226.0817,114.918503 224.689852,113.914323 C220.12851,112.151806 217.848924,109.749276 217.851093,106.706732 C217.853262,103.664189 220.89183,100.995818 222.469062,104.319204 C224.046295,107.642591 234.271837,114.919747 235.943441,116.817975 C237.057844,118.08346 238.124864,118.05769 239.144501,116.740665 C240.254895,115.426763 240.11718,113.780392 238.731356,111.801553 C237.345531,109.822714 234.997027,106.820338 231.685844,102.794424 C228.272489,98.836504 223.93766,96.5207204 218.681359,95.8470731 C213.425057,95.1734258 210.330266,92.4713355 209.396985,87.7408022 C209.324693,86.1921877 210.047125,85.4105004 211.564278,85.3957401 C213.081432,85.3809799 215.69728,86.3731261 217.851093,89.8009434 C218.512317,90.8830378 219.817417,91.3147141 221.766391,91.0959723 C223.715365,90.8772305 223.311724,86.9520417 221.358306,85.3957401 C217.690486,81.9031305 215.712957,78.9601581 215.425719,76.5668228 C214.994863,72.9768198 214.337735,69.2514341 211.564278,67.9578571 C209.715307,67.0954724 208.604688,66.9379242 207.945013,66.66428 C204.525393,65.2320536 202.52196,62.5096377 201.934713,58.4970324 C201.347467,54.4844271 203.43917,54.2674653 204.912031,55.5879359 C206.384893,56.9084065 206.550273,59.4295887 207.945013,59.7165663 C209.339754,60.003544 210.546176,59.3740564 211.564278,57.8281036 C212.452739,56.2594055 211.915494,53.83413 209.952543,50.5522772 C207.989593,47.2704243 204.912031,42.5298492 202.490633,41.8003066 C199.864049,41.0516483 197.511207,41.2948291 195.432109,42.5298492 C193.353011,43.7648692 191.98401,40.7918068 193.956643,38.3663749 C195.432109,36.8931344 196.923914,37.1371879 197.830735,36.8931344 C198.737556,36.6490809 198.853854,34.963814 197.830735,34.1245021 C196.664873,32.860481 194.979565,32.0594005 194.570397,30.769695 C193.956643,28.8351367 194.549432,26.9974879 196.190084,27.1989287 C197.830735,27.4003696 199.268248,27.7281193 202.490633,33.2944205 C205.713019,38.8607217 204.325749,39.9499542 207.945013,41.2399017 C210.357857,42.0998667 212.12654,36.1880663 210.497258,33.2944205 C207.414502,28.655871 203.907061,25.9243464 202.490633,25.6037348 C200.365992,25.1228174 200.279965,21.2551527 200.365992,20.6152604 C200.452018,19.9753681 200.540214,18.2041402 201.934713,19.0799543 C203.329213,19.9557684 203.370419,22.421332 205.657716,22.5752256 C207.182581,22.6778213 207.945013,20.5880387 207.945013,16.3058776 C207.918025,13.9439986 207.305597,11.1362879 206.10773,7.88274567 C204.909862,4.62920342 206.006281,3.69519531 209.396985,5.08072133 C211.092594,5.77917519 211.928024,8.27002028 211.977423,10.2357928 C212.051522,13.1844516 211.982845,18.3083088 211.564278,23.6836948 C211.285234,27.2672855 212.205864,27.9072989 214.326168,25.6037348 C217.755427,22.8237298 219.784765,20.6491363 220.414182,19.0799543 C221.043598,17.5107723 220.72889,15.9553826 219.470057,14.4137853 C218.944258,13.8630593 218.681359,13.10569 218.681359,12.1416775 C218.681359,10.6956587 221.3008,12.3344195 221.535527,11.0064977 C221.676649,10.2002608 221.76004,9.72688987 221.784932,9.58713353 C222.276815,6.82539169 221.748569,5.52542355 221.175877,4.84690133 C220.251633,3.75186151 222.838216,2.58640813 223.856078,3.09708795 C224.87394,3.60776777 226.843155,4.59575546 226.765442,6.81377274 C226.687729,9.03179001 227.378111,12.6951102 225.617095,15.6982124 C224.443083,17.7002806 223.165696,19.9155252 221.784932,22.3439463 C220.404168,24.7723674 226.891952,22.9191114 227.656794,22.3439463 C228.421636,21.7687812 228.804057,20.0296145 228.804057,17.1264463 C229.189852,15.868681 229.815533,15.2397983 230.681101,15.2397983 C231.546669,15.2397983 232.256209,15.5980364 232.809719,16.3145126 C233.36323,17.0309888 232.59658,19.2986201 233.212743,19.5676919 C234.136988,19.9712995 235.576669,18.1964422 236.423924,19.1640842 C237.271178,20.1317263 238.016863,21.4496214 236.423924,23.0012606 C234.830985,24.5528997 231.683782,25.6526579 230.05795,25.6991164 C228.432118,25.7455748 217.183318,28.7101527 215.567517,31.3822896 C213.951715,34.0544264 215.302208,39.4324232 214.512064,42.1112843 C213.721919,44.7901454 214.116992,46.2884299 215.69728,46.6061379 C217.440946,46.4055439 219.082682,44.7788938 220.622487,41.7261874 C222.932195,37.147128 220.698393,37.147128 220.698393,35.7222968 C220.628839,34.3885128 221.142348,33.5916569 222.362385,33.4515557 Z"/>
  </g>
</svg>
