<svg xmlns="http://www.w3.org/2000/svg" xmlns:xlink="http://www.w3.org/1999/xlink" width="520" height="143" viewBox="0 0 520 143">
  <defs>
    <path id="logo-home-a" d="M25.7835,88.460375 C27.7027708,88.460375 29.5719115,88.2383698 31.3909219,87.7943594 C33.2099323,87.350349 34.9430052,86.6986562 36.5901406,85.8392812 C38.237276,84.9799062 39.7698281,83.9343333 41.1877969,82.7025625 C42.6057656,81.4707917 43.8590208,80.0814687 44.9475625,78.5345937 L44.9475625,78.5345937 L36.3538125,69.897875 C35.8954792,70.929125 35.3010781,71.867276 34.5706094,72.7123281 C33.8401406,73.5573802 33.0094115,74.273526 32.0784219,74.8607656 C31.1474323,75.4480052 30.1519896,75.8991771 29.0920938,76.2142812 C28.0321979,76.5293854 26.9293333,76.6869375 25.7835,76.6869375 C24.1793333,76.6869375 22.6682656,76.3861562 21.2502969,75.7845937 C19.8323281,75.1830312 18.6005573,74.3523021 17.5549844,73.2924062 C16.5094115,72.2325104 15.6858438,71.0007396 15.0842813,69.5970937 C14.4827188,68.1934479 14.1819375,66.6895417 14.1819375,65.085375 C14.1819375,63.1088125 14.4827188,61.304125 15.0842813,59.6713125 C15.6858438,58.0385 16.5094115,56.6276927 17.5549844,55.4388906 C18.6005573,54.2500885 19.8323281,53.3262604 21.2502969,52.6674062 C22.6682656,52.0085521 24.1793333,51.679125 25.7835,51.679125 C26.9293333,51.679125 28.0465208,51.851 29.1350625,52.19475 C30.2236042,52.5385 31.2333698,53.0398021 32.1643594,53.6986562 C33.095349,54.3575104 33.9332396,55.1667552 34.6780313,56.1263906 C35.4228229,57.086026 36.0100625,58.1674062 36.43975,59.3705312 L36.43975,59.3705312 L45.0335,50.7338125 C44.00225,48.9864167 42.7776406,47.4395417 41.3596719,46.0931875 C39.9417031,44.7468333 38.3948281,43.6081615 36.7190469,42.6771719 C35.0432656,41.7461823 33.2815469,41.0371979 31.4338906,40.5502187 C29.5862344,40.0632396 27.7027708,39.81975 25.7835,39.81975 C22.5465208,39.81975 19.502901,40.4786042 16.6526406,41.7963125 C13.8023802,43.1140208 11.3101927,44.9115469 9.17607813,47.1888906 C7.04196354,49.4662344 5.35902083,52.1374583 4.12725,55.2025625 C2.89547917,58.2676667 2.27959375,61.5619375 2.27959375,65.085375 C2.27959375,68.3223542 2.89547917,71.3588125 4.12725,74.19475 C5.35902083,77.0306875 7.04196354,79.5085521 9.17607813,81.6283437 C11.3101927,83.7481354 13.8023802,85.4167552 16.6526406,86.6342031 C19.502901,87.851651 22.5465208,88.460375 25.7835,88.460375 Z M71.0295938,88.460375 C74.2952188,88.460375 77.3531615,87.8373281 80.2034219,86.5912344 C83.0536823,85.3451406 85.5387083,83.6407135 87.6585,81.4779531 C89.7782917,79.3151927 91.4540729,76.7513906 92.6858438,73.7865469 C93.9176146,70.8217031 94.5335,67.6205312 94.5335,64.1830312 C94.5335,60.5163646 93.9176146,57.1862865 92.6858438,54.1927969 C91.4540729,51.1993073 89.7782917,48.6355052 87.6585,46.5013906 C85.5387083,44.367276 83.0536823,42.7201406 80.2034219,41.5599844 C77.3531615,40.3998281 74.2952188,39.81975 71.0295938,39.81975 C67.7926146,39.81975 64.7489948,40.4356354 61.8987344,41.6674062 C59.048474,42.8991771 56.5562865,44.5964427 54.4221719,46.7592031 C52.2880573,48.9219635 50.6051146,51.4929271 49.3733438,54.4720937 C48.1415729,57.4512604 47.5256875,60.6882396 47.5256875,64.1830312 C47.5256875,67.6205312 48.1415729,70.8217031 49.3733438,73.7865469 C50.6051146,76.7513906 52.2880573,79.3151927 54.4221719,81.4779531 C56.5562865,83.6407135 59.048474,85.3451406 61.8987344,86.5912344 C64.7489948,87.8373281 67.7926146,88.460375 71.0295938,88.460375 Z M71.0295938,76.6869375 C69.4254271,76.6869375 67.9143594,76.3646719 66.4963906,75.7201406 C65.0784219,75.0756094 63.846651,74.19475 62.8010781,73.0775625 C61.7555052,71.960375 60.9319375,70.6426667 60.330375,69.1244375 C59.7288125,67.6062083 59.4280313,65.9590729 59.4280313,64.1830312 C59.4280313,62.2924062 59.7288125,60.5808177 60.330375,59.0482656 C60.9319375,57.5157135 61.7555052,56.1980052 62.8010781,55.0951406 C63.846651,53.992276 65.0784219,53.147224 66.4963906,52.5599844 C67.9143594,51.9727448 69.4254271,51.679125 71.0295938,51.679125 C72.6337604,51.679125 74.1448281,51.9727448 75.5627969,52.5599844 C76.9807656,53.147224 78.2196979,53.992276 79.2795938,55.0951406 C80.3394896,56.1980052 81.1773802,57.5157135 81.7932656,59.0482656 C82.409151,60.5808177 82.7170938,62.2924062 82.7170938,64.1830312 C82.7170938,66.0450104 82.409151,67.7494375 81.7932656,69.2963125 C81.1773802,70.8431875 80.3394896,72.1608958 79.2795938,73.2494375 C78.2196979,74.3379792 76.9807656,75.1830312 75.5627969,75.7845937 C74.1448281,76.3861562 72.6337604,76.6869375 71.0295938,76.6869375 Z M112.75225,87.601 L112.75225,62.2494375 C112.75225,61.0176667 112.981417,59.8575104 113.43975,58.7689687 C113.898083,57.6804271 114.528292,56.7351146 115.330375,55.9330312 C116.132458,55.1309479 117.077771,54.5007396 118.166313,54.0424062 C119.254854,53.5840729 120.41501,53.3549062 121.646781,53.3549062 L121.646781,53.3549062 L132.00225,53.3549062 L132.00225,41.6674062 L121.646781,41.6674062 C119.068656,41.6674062 116.576469,42.132901 114.170219,43.0638906 C111.763969,43.9948802 109.615531,45.31975 107.724906,47.0385 L107.724906,47.0385 L103.857719,41.5814687 L101.021781,41.5814687 L101.021781,87.601 L112.75225,87.601 Z M157.654594,88.460375 C159.144177,88.460375 160.612276,88.2741771 162.058891,87.9017812 C163.505505,87.5293854 164.916313,87.0209219 166.291313,86.3763906 C167.666313,85.7318594 168.976859,84.9727448 170.222953,84.0990469 C171.469047,83.225349 172.650688,82.2871979 173.767875,81.2845937 L173.767875,81.2845937 L178.322563,87.601 L181.1585,87.601 L181.1585,41.6674062 L178.322563,41.6674062 L173.767875,47.1244375 C172.679333,46.0931875 171.512016,45.1335521 170.265922,44.2455312 C169.019828,43.3575104 167.709281,42.5840729 166.334281,41.9252187 C164.959281,41.2663646 163.541313,40.7507396 162.080375,40.3783437 C160.619438,40.0059479 159.144177,39.81975 157.654594,39.81975 C154.417615,39.81975 151.373995,40.414151 148.523734,41.6029531 C145.673474,42.7917552 143.181286,44.460375 141.047172,46.6088125 C138.913057,48.75725 137.230115,51.3282135 135.998344,54.3217031 C134.766573,57.3151927 134.150688,60.6023021 134.150688,64.1830312 C134.150688,68.0215729 134.766573,71.44475 135.998344,74.4525625 C137.230115,77.460375 138.913057,80.0026927 141.047172,82.0795156 C143.181286,84.1563385 145.673474,85.7390208 148.523734,86.8275625 C151.373995,87.9161042 154.417615,88.460375 157.654594,88.460375 Z M157.654594,76.6869375 C156.050427,76.6869375 154.539359,76.4148021 153.121391,75.8705312 C151.703422,75.3262604 150.471651,74.5241771 149.426078,73.4642812 C148.380505,72.4043854 147.556938,71.0938385 146.955375,69.5326406 C146.353813,67.9714427 146.053031,66.1882396 146.053031,64.1830312 C146.053031,62.1778229 146.353813,60.3946198 146.955375,58.8334219 C147.556938,57.272224 148.380505,55.9616771 149.426078,54.9017812 C150.471651,53.8418854 151.703422,53.0398021 153.121391,52.4955312 C154.539359,51.9512604 156.050427,51.679125 157.654594,51.679125 C159.25876,51.679125 160.769828,52.0300365 162.187797,52.7318594 C163.605766,53.4336823 164.844698,54.3646719 165.904594,55.5248281 C166.96449,56.6849844 167.80238,58.0170156 168.418266,59.5209219 C169.034151,61.0248281 169.342094,62.5788646 169.342094,64.1830312 C169.342094,65.7871979 169.034151,67.3412344 168.418266,68.8451406 C167.80238,70.3490469 166.96449,71.6810781 165.904594,72.8412344 C164.844698,74.0013906 163.605766,74.9323802 162.187797,75.6342031 C160.769828,76.336026 159.25876,76.6869375 157.654594,76.6869375 Z M201.912406,87.601 L201.912406,23.2767812 L190.096,23.2767812 L190.096,87.601 L201.912406,87.601 Z"/>
    <path id="logo-home-b" d="M25.4375,88.460375 C27.3567708,88.460375 29.2259115,88.2383698 31.0449219,87.7943594 C32.8639323,87.350349 34.5970052,86.6986562 36.2441406,85.8392812 C37.891276,84.9799062 39.4238281,83.9343333 40.8417969,82.7025625 C42.2597656,81.4707917 43.5130208,80.0814687 44.6015625,78.5345937 L44.6015625,78.5345937 L36.0078125,69.897875 C35.5494792,70.929125 34.9550781,71.867276 34.2246094,72.7123281 C33.4941406,73.5573802 32.6634115,74.273526 31.7324219,74.8607656 C30.8014323,75.4480052 29.8059896,75.8991771 28.7460938,76.2142812 C27.6861979,76.5293854 26.5833333,76.6869375 25.4375,76.6869375 C23.8333333,76.6869375 22.3222656,76.3861562 20.9042969,75.7845937 C19.4863281,75.1830312 18.2545573,74.3523021 17.2089844,73.2924062 C16.1634115,72.2325104 15.3398438,71.0007396 14.7382812,69.5970937 C14.1367188,68.1934479 13.8359375,66.6895417 13.8359375,65.085375 C13.8359375,63.1088125 14.1367188,61.304125 14.7382812,59.6713125 C15.3398438,58.0385 16.1634115,56.6276927 17.2089844,55.4388906 C18.2545573,54.2500885 19.4863281,53.3262604 20.9042969,52.6674062 C22.3222656,52.0085521 23.8333333,51.679125 25.4375,51.679125 C26.5833333,51.679125 27.7005208,51.851 28.7890625,52.19475 C29.8776042,52.5385 30.8873698,53.0398021 31.8183594,53.6986562 C32.749349,54.3575104 33.5872396,55.1667552 34.3320312,56.1263906 C35.0768229,57.086026 35.6640625,58.1674062 36.09375,59.3705312 L36.09375,59.3705312 L44.6875,50.7338125 C43.65625,48.9864167 42.4316406,47.4395417 41.0136719,46.0931875 C39.5957031,44.7468333 38.0488281,43.6081615 36.3730469,42.6771719 C34.6972656,41.7461823 32.9355469,41.0371979 31.0878906,40.5502187 C29.2402344,40.0632396 27.3567708,39.81975 25.4375,39.81975 C22.2005208,39.81975 19.156901,40.4786042 16.3066406,41.7963125 C13.4563802,43.1140208 10.9641927,44.9115469 8.83007812,47.1888906 C6.69596354,49.4662344 5.01302083,52.1374583 3.78125,55.2025625 C2.54947917,58.2676667 1.93359375,61.5619375 1.93359375,65.085375 C1.93359375,68.3223542 2.54947917,71.3588125 3.78125,74.19475 C5.01302083,77.0306875 6.69596354,79.5085521 8.83007812,81.6283437 C10.9641927,83.7481354 13.4563802,85.4167552 16.3066406,86.6342031 C19.156901,87.851651 22.2005208,88.460375 25.4375,88.460375 Z M70.6835938,88.460375 C73.9492188,88.460375 77.0071615,87.8373281 79.8574219,86.5912344 C82.7076823,85.3451406 85.1927083,83.6407135 87.3125,81.4779531 C89.4322917,79.3151927 91.1080729,76.7513906 92.3398438,73.7865469 C93.5716146,70.8217031 94.1875,67.6205312 94.1875,64.1830312 C94.1875,60.5163646 93.5716146,57.1862865 92.3398438,54.1927969 C91.1080729,51.1993073 89.4322917,48.6355052 87.3125,46.5013906 C85.1927083,44.367276 82.7076823,42.7201406 79.8574219,41.5599844 C77.0071615,40.3998281 73.9492188,39.81975 70.6835938,39.81975 C67.4466146,39.81975 64.4029948,40.4356354 61.5527344,41.6674062 C58.702474,42.8991771 56.2102865,44.5964427 54.0761719,46.7592031 C51.9420573,48.9219635 50.2591146,51.4929271 49.0273438,54.4720937 C47.7955729,57.4512604 47.1796875,60.6882396 47.1796875,64.1830312 C47.1796875,67.6205312 47.7955729,70.8217031 49.0273438,73.7865469 C50.2591146,76.7513906 51.9420573,79.3151927 54.0761719,81.4779531 C56.2102865,83.6407135 58.702474,85.3451406 61.5527344,86.5912344 C64.4029948,87.8373281 67.4466146,88.460375 70.6835938,88.460375 Z M70.6835938,76.6869375 C69.0794271,76.6869375 67.5683594,76.3646719 66.1503906,75.7201406 C64.7324219,75.0756094 63.500651,74.19475 62.4550781,73.0775625 C61.4095052,71.960375 60.5859375,70.6426667 59.984375,69.1244375 C59.3828125,67.6062083 59.0820312,65.9590729 59.0820312,64.1830312 C59.0820312,62.2924062 59.3828125,60.5808177 59.984375,59.0482656 C60.5859375,57.5157135 61.4095052,56.1980052 62.4550781,55.0951406 C63.500651,53.992276 64.7324219,53.147224 66.1503906,52.5599844 C67.5683594,51.9727448 69.0794271,51.679125 70.6835938,51.679125 C72.2877604,51.679125 73.7988281,51.9727448 75.2167969,52.5599844 C76.6347656,53.147224 77.8736979,53.992276 78.9335938,55.0951406 C79.9934896,56.1980052 80.8313802,57.5157135 81.4472656,59.0482656 C82.063151,60.5808177 82.3710938,62.2924062 82.3710938,64.1830312 C82.3710938,66.0450104 82.063151,67.7494375 81.4472656,69.2963125 C80.8313802,70.8431875 79.9934896,72.1608958 78.9335938,73.2494375 C77.8736979,74.3379792 76.6347656,75.1830312 75.2167969,75.7845937 C73.7988281,76.3861562 72.2877604,76.6869375 70.6835938,76.6869375 Z M121.644531,88.460375 C123.134115,88.460375 124.602214,88.2741771 126.048828,87.9017812 C127.495443,87.5293854 128.90625,87.0209219 130.28125,86.3763906 C131.65625,85.7318594 132.966797,84.9727448 134.212891,84.0990469 C135.458984,83.225349 136.640625,82.2871979 137.757812,81.2845937 L137.757812,81.2845937 L142.3125,87.601 L145.148438,87.601 L145.148438,23.2767812 L133.332031,23.2767812 L133.332031,44.7611562 C132.701823,43.8444896 131.928385,43.0710521 131.011719,42.4408437 C130.095052,41.8106354 129.113932,41.3021719 128.068359,40.9154531 C127.022786,40.5287344 125.948568,40.2494375 124.845703,40.0775625 C123.742839,39.9056875 122.675781,39.81975 121.644531,39.81975 C118.407552,39.81975 115.363932,40.4356354 112.513672,41.6674062 C109.663411,42.8991771 107.171224,44.6036042 105.037109,46.7806875 C102.902995,48.9577708 101.220052,51.5358958 99.9882812,54.5150625 C98.7565104,57.4942292 98.140625,60.7168854 98.140625,64.1830312 C98.140625,67.6778229 98.7565104,70.9076406 99.9882812,73.8724844 C101.220052,76.8373281 102.902995,79.4011302 105.037109,81.5638906 C107.171224,83.726651 109.663411,85.4167552 112.513672,86.6342031 C115.363932,87.851651 118.407552,88.460375 121.644531,88.460375 Z M121.644531,76.6869375 C120.040365,76.6869375 118.529297,76.3575104 117.111328,75.6986562 C115.693359,75.0398021 114.461589,74.1374583 113.416016,72.991625 C112.370443,71.8457917 111.546875,70.5137604 110.945312,68.9955312 C110.34375,67.4773021 110.042969,65.8731354 110.042969,64.1830312 C110.042969,62.2351146 110.34375,60.4877187 110.945312,58.9408437 C111.546875,57.3939687 112.370443,56.0834219 113.416016,55.0092031 C114.461589,53.9349844 115.693359,53.1114167 117.111328,52.5385 C118.529297,51.9655833 120.040365,51.679125 121.644531,51.679125 C123.248698,51.679125 124.759766,52.0300365 126.177734,52.7318594 C127.595703,53.4336823 128.834635,54.3646719 129.894531,55.5248281 C130.954427,56.6849844 131.792318,58.0170156 132.408203,59.5209219 C133.024089,61.0248281 133.332031,62.5788646 133.332031,64.1830312 C133.332031,65.7871979 133.024089,67.3412344 132.408203,68.8451406 C131.792318,70.3490469 130.954427,71.6810781 129.894531,72.8412344 C128.834635,74.0013906 127.595703,74.9323802 126.177734,75.6342031 C124.759766,76.336026 123.248698,76.6869375 121.644531,76.6869375 Z M175.140625,88.460375 C177.059896,88.460375 178.929036,88.2383698 180.748047,87.7943594 C182.567057,87.350349 184.30013,86.6986562 185.947266,85.8392812 C187.594401,84.9799062 189.126953,83.9343333 190.544922,82.7025625 C191.962891,81.4707917 193.216146,80.0814687 194.304688,78.5345937 L194.304688,78.5345937 L185.710938,69.897875 C185.252604,70.929125 184.658203,71.867276 183.927734,72.7123281 C183.197266,73.5573802 182.366536,74.273526 181.435547,74.8607656 C180.504557,75.4480052 179.509115,75.8991771 178.449219,76.2142812 C177.389323,76.5293854 176.286458,76.6869375 175.140625,76.6869375 C174.682292,76.6869375 174.223958,76.6654531 173.765625,76.6224844 C173.307292,76.5795156 172.848958,76.4864167 172.390625,76.3431875 L172.390625,76.3431875 L194.390625,49.8314687 C193.302083,48.2845937 192.041667,46.8881094 190.609375,45.6420156 C189.177083,44.3959219 187.63737,43.3431875 185.990234,42.4838125 C184.343099,41.6244375 182.602865,40.9655833 180.769531,40.50725 C178.936198,40.0489167 177.059896,39.81975 175.140625,39.81975 C171.903646,39.81975 168.860026,40.4069896 166.009766,41.5814687 C163.159505,42.7559479 160.667318,44.4030833 158.533203,46.522875 C156.399089,48.6426667 154.716146,51.2064687 153.484375,54.2142812 C152.252604,57.2220937 151.636719,60.5450104 151.636719,64.1830312 C151.636719,67.7351146 152.252604,70.9935781 153.484375,73.9584219 C154.716146,76.9232656 156.399089,79.4799062 158.533203,81.6283437 C160.667318,83.7767812 163.159505,85.4525625 166.009766,86.6556875 C168.860026,87.8588125 171.903646,88.460375 175.140625,88.460375 Z M164.742188,70.2845937 C164.513021,69.8835521 164.326823,69.4252187 164.183594,68.9095937 C164.040365,68.3939687 163.91862,67.8568594 163.818359,67.2982656 C163.718099,66.7396719 163.646484,66.1882396 163.603516,65.6439687 C163.560547,65.0996979 163.539062,64.6127187 163.539062,64.1830312 C163.539062,62.2637604 163.839844,60.537849 164.441406,59.0052969 C165.042969,57.4727448 165.866536,56.1621979 166.912109,55.0736562 C167.957682,53.9851146 169.189453,53.147224 170.607422,52.5599844 C172.025391,51.9727448 173.536458,51.679125 175.140625,51.679125 C175.713542,51.679125 176.264974,51.7077708 176.794922,51.7650625 C177.32487,51.8223542 177.861979,51.9512604 178.40625,52.1517812 L178.40625,52.1517812 L164.742188,70.2845937 Z"/>
    <linearGradient id="logo-home-c" x1="50%" x2="50%" y1="0%" y2="100%">
      <stop offset="0%" stop-color="#FF785D"/>
      <stop offset="100%" stop-color="#F23E43"/>
      <stop offset="100%" stop-color="#FF785D"/>
    </linearGradient>
  </defs>
  <g fill="none">
    <g transform="translate(312 16)">
      <use fill="#000" xlink:href="#logo-home-a"/>
      <use fill="#FFF" xlink:href="#logo-home-a"/>
    </g>
    <g transform="translate(0 16)">
      <use fill="#000" xlink:href="#logo-home-b"/>
      <use fill="#FFF" xlink:href="#logo-home-b"/>
    </g>
    <path fill="url(#logo-home-c)" d="M223.362385,33.4515557 C224.582421,33.3114544 225.557887,33.9151116 226.288782,35.2625272 C226.91841,35.9104046 227.446362,35.5077043 227.87264,34.0544264 C228.298918,32.6011485 229.198508,32.0409705 230.57141,32.3738924 C232.111456,32.8513314 232.429448,34.0074084 231.525385,35.8421234 C230.16929,38.5941959 221.776855,49.0528787 218.127047,50.8654836 C217.834388,51.0001405 217.644804,51.4538361 217.558295,52.2265705 C217.428532,53.3856722 216.910927,58.775395 218.127047,62.6889737 C218.937794,65.2980262 220.169397,65.2133968 221.821857,62.4350856 C222.500672,60.9783287 221.273772,58.8857338 222.535527,57.0738549 C223.797281,55.2619759 222.55236,55.2619759 225.399373,52.852852 C227.297382,51.2467694 228.32181,51.9210216 228.472658,54.8756087 C228.69664,56.9962427 228.496634,58.725186 227.87264,60.0624389 C227.248645,61.3996917 225.457989,64.2083097 222.500672,68.488293 C221.598476,70.3840149 221.598476,72.1991605 222.500672,73.9337297 C223.853966,76.5355835 225.920594,80.69688 226.707846,81.1202688 C227.495099,81.5436575 229.511303,81.5177062 229.651368,80.0842094 C229.791432,78.6507126 229.499918,75.5575971 228.986288,74.8834054 C228.472658,74.2092137 228.206987,72.5330805 228.472658,71.9414613 C228.738328,71.3498422 230.913122,70.7115832 231.525385,71.6734179 C232.137647,72.6352527 233.660825,73.3125296 233.363166,75.6942503 C233.065506,78.075971 232.963575,83.4079837 231.935231,85.2657767 C231.249669,86.5043053 231.497989,88.3703253 232.680193,90.8638366 C235.310633,95.9164333 237.054903,98.6220322 237.913,98.9806332 C238.771098,99.3392343 239.838179,99.1599337 241.114241,98.4427317 C242.586694,95.868644 243.152073,93.4498413 242.810376,91.1863234 C242.468679,88.9228056 241.776116,88.5804462 241.314643,87.083795 L239.986677,84.6157215 C239.049781,83.0867067 238.226383,82.2355132 237.516483,82.0621409 C236.451631,81.8020826 235.370696,78.8303761 236.897127,78.7095116 C238.423558,78.588647 240.401991,78.1062778 241.448588,80.0842094 C242.14632,81.4028304 242.80887,81.682186 243.436238,80.922276 C244.073245,78.8906874 244.073245,77.3215658 243.436238,76.2149114 C242.799231,75.108257 240.077764,72.1386072 235.271837,67.3059621 C233.383829,66.1787402 232.41868,65.1274366 232.376389,64.1520514 C232.312953,62.6889737 230.856645,60.2945495 233.650524,59.0423496 C235.513109,58.2075496 237.177557,59.8386157 238.643866,63.9355479 C239.815708,66.7036963 241.007611,67.9574691 242.219575,67.6968663 C243.431539,67.4362635 244.037521,66.9241924 244.037521,66.1606528 C244.127283,64.3334087 243.718234,62.9562307 242.810376,62.0291188 C241.902517,61.1020068 240.408135,58.7175035 238.32723,54.8756087 C236.820558,52.8458349 236.128549,50.273683 236.251204,47.1591531 C236.435185,42.4873582 237.509434,40.1713327 238.32723,39.9459367 C239.145025,39.7205407 240.649769,38.6512708 242.219575,40.7918068 C243.266112,42.2188309 243.127012,43.9788071 241.802273,46.0717353 C240.658625,48.5858142 240.54073,50.2995134 241.448588,51.212833 C242.356447,52.1261526 243.379007,54.0798265 244.51627,57.0738549 C244.919174,57.8677618 244.734977,57.9108326 245.353223,57.669285 C245.971469,57.4277375 246.145743,57.0834732 246.436328,55.979541 C246.726913,54.8756087 246.468433,53.2407927 245.74468,51.7988263 C245.020928,50.3568598 245.749676,48.4692446 246.170115,47.9801607 C246.590553,47.4910768 247.390031,46.6368586 249.458286,47.8870624 C250.837122,48.7205315 251.910862,50.2143087 251.52654,52.852852 L250.413435,57.669285 C249.592928,64.2289982 248.855737,68.2029487 248.201862,69.5911364 C247.22105,71.6734179 247.036888,75.9951412 248.547053,76.8607925 C250.057219,77.7264438 250.076918,76.2149114 250.413435,76.2149114 C250.749951,76.2149114 253.353161,75.0120735 253.232435,76.8607925 C253.111708,78.7095116 252.177162,81.8371079 250.71742,84.1124823 C249.744258,85.6293986 249.324547,87.2430428 249.458286,88.9534149 C248.693564,94.5301209 246.886642,99.023825 244.037521,102.434527 C243.381718,103.179919 243.21334,103.986046 243.532385,104.852907 C244.010954,106.153198 245.429671,107.833143 246.170115,107.642591 C247.531119,107.559957 248.297227,106.763631 248.468437,105.253611 C248.725252,102.988581 249.582627,102.963174 249.864382,102.988581 C250.146137,103.013988 253.123094,102.332355 252.324817,106.486756 C251.52654,110.641156 251.024658,109.435051 251.023573,112.201324 C251.022489,114.967598 250.266502,117.596129 251.022489,118.300264 C251.778475,119.0044 251.398223,121.937452 253.835886,121.17615 C255.460995,120.668616 256.538618,119.16773 257.068754,116.673493 C257.643832,109.257324 257.580697,105.180898 256.879351,104.444218 C255.827331,103.339197 257.055199,97.0894483 258.885073,94.1378858 C260.104989,92.1701776 260.104989,87.0273861 258.885073,78.7095116 C255.929443,74.7581249 254.469459,72.0667418 254.505123,70.6353623 C254.558619,68.488293 253.45708,66.2161852 255.551901,64.4525794 C256.948449,63.2768423 258.059507,63.8462001 258.885073,66.1606528 C259.440753,68.4517554 259.817089,69.9433252 260.014083,70.6353623 C260.309574,71.6734179 261.37081,74.6817831 262.162762,74.4572944 C262.954713,74.2328058 263.645095,72.6646522 263.645095,71.3993858 C263.645095,70.1341193 263.738713,64.2444239 265.077729,62.0291188 C265.970406,60.5522487 265.69359,57.874295 264.247282,53.9952577 C261.054656,49.5414182 259.466296,46.9002441 259.4822,46.0717353 C259.506056,44.8289722 258.521448,40.5949029 257.700399,40.4785754 C256.879351,40.3622478 252.585427,38.6438302 252.324817,38.1598276 C252.064207,37.6758251 249.315329,36.3165529 249.864382,33.6477337 C250.413435,30.9789144 251.52654,32.3738924 252.788204,32.860481 C254.455845,33.3666843 255.473224,33.4804712 255.840344,33.2018416 C256.391023,32.7838971 256.341142,29.6065758 255.551901,28.5235135 C254.762661,27.4404512 251.841188,20.8892675 255.551901,18.3678086 C258.02571,16.686836 259.624493,16.991296 260.34825,19.2811887 C260.907905,21.4244469 260.992124,23.1444374 260.600908,24.44116 C260.014083,26.386244 258.61615,27.3157757 259.4822,29.3123995 C260.34825,31.3090233 261.549009,32.8463257 262.162762,34.0544264 C262.776515,35.2625272 263.875524,37.4796471 263.645095,40.1530034 C263.414667,42.8263596 264.700729,45.498627 264.889229,45.6741165 C265.077729,45.849606 266.263306,49.3557659 267.526416,48.9895428 C268.789526,48.6233197 270.675065,47.2580587 270.631871,45.6741165 C270.603075,44.618155 270.523554,41.3408239 270.393309,35.8421234 C268.530362,30.546739 267.252733,27.6919801 266.560424,27.2778467 C265.521959,26.6566466 264.781334,21.9011903 265.521959,20.7631401 C266.262583,19.62509 266.565484,19.0367375 267.987454,19.62509 C269.409424,20.2134425 270.631871,23.0855174 270.631871,24.0524336 C270.631871,25.0193498 271.600755,26.7974738 272.23981,26.1590332 C272.878865,25.5205927 274.56994,22.621296 273.920583,21.123193 C273.271227,19.62509 271.938175,16.9669779 272.464817,14.6431488 C272.815912,13.0939294 273.768109,11.5505172 275.321408,10.0129124 C276.359632,5.72010469 276.537589,3.26186067 275.85528,2.63818039 C274.831815,1.70265996 275.617261,-0.308482123 277.559186,0.0401376146 C279.501112,0.388757352 281.74395,1.07637848 281.331528,3.61344456 C281.05658,5.30482194 280.919106,7.21784477 280.919106,9.35251306 C280.5156,11.8200125 279.854737,13.5835577 278.936517,14.6431488 C277.559186,16.2325354 278.156132,18.9372874 278.546324,19.2811887 C278.936517,19.62509 280.752655,21.123193 281.331528,21.123193 C281.910401,21.123193 282.910732,21.9540005 282.12113,22.6436179 C281.594729,23.1033628 280.416681,24.0524336 279.415627,26.1590332 C279.160439,26.7167758 278.546324,27.0784626 278.546324,27.809941 C278.546324,28.9071585 280.541926,29.6430529 281.331528,29.3123995 C282.12113,28.9817461 286.325232,29.5410621 286.796209,28.5235135 C287.267187,27.5059649 295.984255,21.1838067 297.171821,17.5284716 C298.359387,13.8731365 297.053986,7.20907333 297.505265,7.20907333 C297.956543,7.20907333 297.329055,5.67812272 299.906782,6.12220003 C301.625267,6.41825156 302.242153,7.07502138 301.75744,8.0925095 C301.584061,10.041828 301.914493,10.8975585 302.748735,10.659701 C304.000097,10.3029147 304.936632,7.72229384 305.610025,7.46568359 C306.283419,7.20907333 308.050942,6.12183707 308.624212,7.46568359 C309.197482,8.8095301 309.952384,9.82980088 308.920606,11.1912508 C307.888828,12.5527007 305.332788,17.4066997 302.969043,18.9396466 C300.605297,20.4725934 293.249655,27.0963685 293.273512,27.809941 C293.297368,28.5235135 291.599606,31.2962291 295.494662,32.3738924 C298.091367,33.0923346 299.954254,32.0718369 301.083324,29.3123995 C302.257696,28.4772365 303.095552,28.3267306 303.596893,28.8608816 C304.348903,29.6621081 305.100914,31.1003233 304.348903,32.5773749 C303.596893,34.0544264 301.878528,34.0855046 302.140223,34.963814 C302.401917,35.8421234 302.844882,36.2867905 303.596893,36.1880663 C304.098233,36.1222502 304.634273,35.8858445 305.205013,35.4788493 C307.090009,35.1028263 307.908226,35.5474481 307.659665,36.8127145 C307.286822,38.7106142 307.224652,39.0928074 305.610025,39.6229054 C303.995399,40.1530034 301.509842,40.1530034 300.10215,40.1530034 C298.694457,40.1530034 291.83383,37.755857 290.59548,35.4788493 C289.769913,33.9608441 287.442253,33.4860365 283.6125,34.0544264 C279.492136,34.3550754 277.355144,35.5531344 277.201525,37.6486034 C276.971096,40.7918068 277.163753,42.7644755 275.85528,46.671884 C274.546807,50.5792924 273.56003,51.7443828 274.246075,53.3099957 C274.93212,54.8756087 276.326258,55.6185807 277.201525,54.2357164 C278.076792,52.852852 279.944077,49.1837245 279.679852,48.1714388 C279.415627,47.1591531 280.257098,45.2764976 281.934799,45.6741165 C283.6125,46.0717353 284.225711,47.4193929 284.10896,48.5549024 C283.99221,49.6904119 283.140257,51.0636578 284.225711,50.8654836 C285.311165,50.6673093 286.266856,48.3102697 286.304086,47.4910768 C286.341316,46.671884 288.467223,45.4715867 289.10917,46.0717353 C289.751117,46.671884 291.753406,47.0892839 291.388335,48.5549024 C291.023264,50.0205208 289.284115,52.0022634 288.434331,52.6561296 C287.584546,53.3099957 276.291558,59.6345131 273.920583,63.6656897 C271.549609,67.6968663 270.291559,67.1319245 269.281107,71.6734179 C268.270655,76.2149114 269.07833,79.0662978 269.281107,79.2584833 C269.483884,79.4506688 270.864106,80.9269944 271.551958,80.6212036 C272.23981,80.3154127 274.571567,77.9725283 274.246075,76.2149114 C273.920583,74.4572944 274.247521,71.0926875 275.321408,71.0660102 C276.395296,71.0393329 278.936517,70.1905591 278.936517,71.0660102 C278.936517,71.9414613 279.774554,72.7697281 279.160439,73.9337297 C278.546324,75.0977312 278.457406,75.6942503 278.936517,75.6942503 C279.415627,75.6942503 280.919106,75.5690303 281.331528,76.2149114 C281.74395,76.8607925 282.688797,77.0981661 282.12113,78.4222315 C281.553462,79.7462969 281.417735,80.4429919 280.416681,80.922276 C279.415627,81.4015601 268.804346,86.022904 268.755369,86.7820275 C268.706391,87.5411511 266.918808,88.5579738 267.034655,91.1863234 C267.150501,93.8146731 266.64645,94.7380345 266.084204,96.0962178 C265.521959,97.4544011 264.247282,99.0514097 264.247282,100.742969 C264.247282,102.434527 264.267524,104.67034 265.077729,105.457411 C265.887934,106.244482 266.086192,105.661211 266.560424,105.457411 C267.034655,105.253611 268.425178,101.418431 268.406202,100.094365 C268.387225,98.7702999 269.656119,96.3268766 270.393309,96.3147176 C271.1305,96.3025585 271.823232,95.3390905 272.464817,95.7176541 C273.106402,96.0962178 274.571567,97.3162961 274.246075,99.3711744 C273.920583,101.426053 272.757597,105.957383 271.019352,108.070335 C269.281107,110.183286 262.519636,121.623434 262.162762,122.91689 C261.805888,124.210345 261.114176,126.716682 262.680729,128.494806 C264.247282,130.27293 265.86462,130.14281 266.560424,130.27293 C267.256227,130.40305 274.491685,126.409076 275.321408,122.91689 C276.151132,119.424704 273.744554,118.767026 273.700818,117.537874 C273.657082,116.308722 274.266136,113.897783 273.657082,113.049554 C273.048027,112.201324 272.014804,111.997343 272.23981,110.734799 C272.464817,109.472254 273.512318,108.161981 274.246075,109.020736 C274.979832,109.879492 276.29698,109.807263 276.508793,111.257638 C276.720607,112.708012 276.675967,113.252628 278.546324,113.838803 C280.416681,114.424978 281.934799,112.187169 281.934799,111.722403 C281.934799,111.257638 282.246375,102.822709 281.331528,101.782839 C280.416681,100.742969 278.635785,93.1813139 279.983656,91.1863234 C281.331528,89.1913329 281.146824,88.4565274 282.12113,88.9534149 C283.095436,89.4503024 283.6125,89.4533875 283.6125,90.1428234 C283.6125,90.8322593 284.226253,93.5671367 283.6125,94.6423954 C282.998746,95.7176541 284.71693,98.5176822 285.631235,98.1993693 C286.545539,97.8810564 288.325894,94.2469543 288.167034,93.0809565 C288.008173,91.9149586 289.537858,82.4920629 288.167034,80.0842094 C286.796209,77.6763558 288.794342,69.2797197 289.10917,68.488293 C289.423999,67.6968663 289.423999,65.278487 290.963623,65.5013423 C292.503248,65.7241976 294.659517,64.9501928 294.413004,66.9379242 C294.16649,68.9256556 294.256674,70.787804 293.273512,72.1438096 C292.29035,73.4998151 292.046728,75.095372 293.041276,75.083213 C294.035824,75.0710539 295.675752,73.5241332 295.68768,72.8339714 C295.699608,72.1438096 296.523187,71.2030263 297.505265,71.6734179 C298.487342,72.1438096 300.773013,73.7823768 300.10215,74.8834054 C299.431286,75.984434 298.986514,77.5946906 296.699759,79.2584833 C295.175255,80.3676784 294.413004,82.4572191 294.413004,85.5271054 C294.276011,88.8684831 293.818769,90.8261496 293.041276,91.4001048 C291.875036,92.2610377 292.574635,95.7332612 293.780816,95.4167631 C294.986997,95.1002651 296.671927,92.5372476 296.921874,91.8617855 C297.171821,91.1863234 298.93254,85.3957401 298.544272,83.8212097 C298.156003,82.2466793 300.437401,80.5595009 301.288812,81.1202688 C302.140223,81.6810366 303.455021,82.2321861 302.969043,84.1124823 C302.483064,85.9927786 303.435683,90.8044932 302.140223,92.7234443 C300.844762,94.6423954 290.029981,109.929035 288.167034,111.257638 C286.304086,112.58624 287.224897,115.982605 288.167034,115.919633 C289.10917,115.85666 291.388335,114.726776 292.471078,114.050951 C293.553821,113.375126 296.405714,113.5635 296.405714,114.726776 C296.405714,115.502293 296.251191,116.693456 295.942146,118.300264 C295.055647,120.329614 292.626143,121.17615 291.701537,121.17615 C290.776931,121.17615 289.360503,122.311478 287.452253,124.582134 C279.810217,131.895345 274.032213,136.12639 270.118241,137.275268 C266.204268,138.424147 265.346626,143 264.684825,143 C264.243625,143 260.278084,143 252.788204,143 C252.434622,142.674377 250.13889,134.1265 248.769956,131.29081 C245.988833,125.52983 242.884256,122.759134 241.776116,122.270308 C239.295727,121.17615 238.946017,123.410026 233.809719,123.410026 C228.673421,123.410026 229.969498,124.664611 226.733738,124.457484 C221.880099,124.146793 218.298787,121.693933 217.050316,119.7993 C216.218002,118.536211 216.218002,117.400157 217.050316,116.391138 C217.632984,115.920504 218.509998,115.73334 219.681359,115.829644 C220.852719,115.925949 221.881063,116.630326 222.766391,117.942777 C223.651718,119.255228 226.037814,118.854161 226.733738,117.480734 C227.429663,116.107306 227.0817,114.918503 225.689852,113.914323 C221.12851,112.151806 218.848924,109.749276 218.851093,106.706732 C218.853262,103.664189 221.89183,100.995818 223.469062,104.319204 C225.046295,107.642591 235.271837,114.919747 236.943441,116.817975 C238.057844,118.08346 239.124864,118.05769 240.144501,116.740665 C241.254895,115.426763 241.11718,113.780392 239.731356,111.801553 C238.345531,109.822714 235.997027,106.820338 232.685844,102.794424 C229.272489,98.836504 224.93766,96.5207204 219.681359,95.8470731 C214.425057,95.1734258 211.330266,92.4713355 210.396985,87.7408022 C210.324693,86.1921877 211.047125,85.4105004 212.564278,85.3957401 C214.081432,85.3809799 216.69728,86.3731261 218.851093,89.8009434 C219.512317,90.8830378 220.817417,91.3147141 222.766391,91.0959723 C224.715365,90.8772305 224.311724,86.9520417 222.358306,85.3957401 C218.690486,81.9031305 216.712957,78.9601581 216.425719,76.5668228 C215.994863,72.9768198 215.337735,69.2514341 212.564278,67.9578571 C210.715307,67.0954724 209.604688,66.9379242 208.945013,66.66428 C205.525393,65.2320536 203.52196,62.5096377 202.934713,58.4970324 C202.347467,54.4844271 204.43917,54.2674653 205.912031,55.5879359 C207.384893,56.9084065 207.550273,59.4295887 208.945013,59.7165663 C210.339754,60.003544 211.546176,59.3740564 212.564278,57.8281036 C213.452739,56.2594055 212.915494,53.83413 210.952543,50.5522772 C208.989593,47.2704243 205.912031,42.5298492 203.490633,41.8003066 C200.864049,41.0516483 198.511207,41.2948291 196.432109,42.5298492 C194.353011,43.7648692 192.98401,40.7918068 194.956643,38.3663749 C196.432109,36.8931344 197.923914,37.1371879 198.830735,36.8931344 C199.737556,36.6490809 199.853854,34.963814 198.830735,34.1245021 C197.664873,32.860481 195.979565,32.0594005 195.570397,30.769695 C194.956643,28.8351367 195.549432,26.9974879 197.190084,27.1989287 C198.830735,27.4003696 200.268248,27.7281193 203.490633,33.2944205 C206.713019,38.8607217 205.325749,39.9499542 208.945013,41.2399017 C211.357857,42.0998667 213.12654,36.1880663 211.497258,33.2944205 C208.414502,28.655871 204.907061,25.9243464 203.490633,25.6037348 C201.365992,25.1228174 201.279965,21.2551527 201.365992,20.6152604 C201.452018,19.9753681 201.540214,18.2041402 202.934713,19.0799543 C204.329213,19.9557684 204.370419,22.421332 206.657716,22.5752256 C208.182581,22.6778213 208.945013,20.5880387 208.945013,16.3058776 C208.918025,13.9439986 208.305597,11.1362879 207.10773,7.88274567 C205.909862,4.62920342 207.006281,3.69519531 210.396985,5.08072133 C212.092594,5.77917519 212.928024,8.27002028 212.977423,10.2357928 C213.051522,13.1844516 212.982845,18.3083088 212.564278,23.6836948 C212.285234,27.2672855 213.205864,27.9072989 215.326168,25.6037348 C218.755427,22.8237298 220.784765,20.6491363 221.414182,19.0799543 C222.043598,17.5107723 221.72889,15.9553826 220.470057,14.4137853 C219.944258,13.8630593 219.681359,13.10569 219.681359,12.1416775 C219.681359,10.6956587 222.3008,12.3344195 222.535527,11.0064977 C222.676649,10.2002608 222.76004,9.72688987 222.784932,9.58713353 C223.276815,6.82539169 222.748569,5.52542355 222.175877,4.84690133 C221.251633,3.75186151 223.838216,2.58640813 224.856078,3.09708795 C225.87394,3.60776777 227.843155,4.59575546 227.765442,6.81377274 C227.687729,9.03179001 228.378111,12.6951102 226.617095,15.6982124 C225.443083,17.7002806 224.165696,19.9155252 222.784932,22.3439463 C221.404168,24.7723674 227.891952,22.9191114 228.656794,22.3439463 C229.421636,21.7687812 229.804057,20.0296145 229.804057,17.1264463 C230.189852,15.868681 230.815533,15.2397983 231.681101,15.2397983 C232.546669,15.2397983 233.256209,15.5980364 233.809719,16.3145126 C234.36323,17.0309888 233.59658,19.2986201 234.212743,19.5676919 C235.136988,19.9712995 236.576669,18.1964422 237.423924,19.1640842 C238.271178,20.1317263 239.016863,21.4496214 237.423924,23.0012606 C235.830985,24.5528997 232.683782,25.6526579 231.05795,25.6991164 C229.432118,25.7455748 218.183318,28.7101527 216.567517,31.3822896 C214.951715,34.0544264 216.302208,39.4324232 215.512064,42.1112843 C214.721919,44.7901454 215.116992,46.2884299 216.69728,46.6061379 C218.440946,46.4055439 220.082682,44.7788938 221.622487,41.7261874 C223.932195,37.147128 221.698393,37.147128 221.698393,35.7222968 C221.628839,34.3885128 222.142348,33.5916569 223.362385,33.4515557 Z"/>
  </g>
</svg>
